<svg width="100" height="30" viewBox="0 0 100 30" fill="none" xmlns="http://www.w3.org/2000/svg">
<rect x="0.5" y="0.5" width="99" height="29" fill="#181A1B" stroke="#D8D9C3"/>
<path d="M21.416 20L24.872 8.64H26.728L30.184 20H28.712L25.8 9.888L22.888 20H21.416ZM23.16 16.768L23.64 15.424H27.96L28.44 16.768H23.16ZM32.3218 20L31.0738 8.64H32.5138L33.5698 19.2H33.4098L34.6578 9.92H36.1298L37.3778 19.2H37.2178L38.2738 8.64H39.7138L38.4658 20H36.3858L35.2018 11.04H35.5858L34.4018 20H32.3218ZM45.1635 20.256C44.3635 20.256 43.6542 20.0907 43.0355 19.76C42.4168 19.4293 41.9208 18.976 41.5475 18.4C41.1742 17.8133 40.9555 17.136 40.8915 16.368L42.3315 16.272C42.4062 16.8373 42.5662 17.3173 42.8115 17.712C43.0675 18.1067 43.3928 18.4053 43.7875 18.608C44.1928 18.8107 44.6622 18.912 45.1955 18.912C45.7288 18.912 46.1768 18.848 46.5395 18.72C46.9022 18.5813 47.1742 18.384 47.3555 18.128C47.5475 17.8613 47.6435 17.5467 47.6435 17.184C47.6435 16.8213 47.5582 16.5067 47.3875 16.24C47.2275 15.9627 46.9182 15.7067 46.4595 15.472C46.0115 15.2373 45.3448 14.9973 44.4595 14.752C43.6702 14.528 43.0302 14.2827 42.5395 14.016C42.0595 13.7493 41.7075 13.424 41.4835 13.04C41.2702 12.656 41.1635 12.1813 41.1635 11.616C41.1635 10.976 41.3128 10.416 41.6115 9.936C41.9208 9.44533 42.3582 9.06667 42.9235 8.8C43.4888 8.52267 44.1608 8.384 44.9395 8.384C45.7182 8.384 46.3848 8.544 46.9395 8.864C47.4942 9.17333 47.9315 9.6 48.2515 10.144C48.5822 10.688 48.7902 11.3067 48.8755 12L47.4355 12.096C47.3715 11.6373 47.2382 11.232 47.0355 10.88C46.8328 10.5173 46.5555 10.2347 46.2035 10.032C45.8515 9.82933 45.4195 9.728 44.9075 9.728C44.2035 9.728 43.6435 9.89867 43.2275 10.24C42.8115 10.5707 42.6035 11.008 42.6035 11.552C42.6035 11.904 42.6782 12.1973 42.8275 12.432C42.9875 12.656 43.2648 12.8587 43.6595 13.04C44.0542 13.2107 44.6088 13.3973 45.3235 13.6C46.2515 13.856 46.9875 14.144 47.5315 14.464C48.0862 14.784 48.4808 15.168 48.7155 15.616C48.9608 16.0533 49.0835 16.5867 49.0835 17.216C49.0835 17.8133 48.9182 18.3413 48.5875 18.8C48.2568 19.2587 47.7982 19.616 47.2115 19.872C46.6248 20.128 45.9422 20.256 45.1635 20.256ZM52.0213 15.968V14.704H57.1413V15.968H52.0213ZM64.351 20.256C63.551 20.256 62.8417 20.0907 62.223 19.76C61.6043 19.4293 61.1083 18.976 60.735 18.4C60.3617 17.8133 60.143 17.136 60.079 16.368L61.519 16.272C61.5937 16.8373 61.7537 17.3173 61.999 17.712C62.255 18.1067 62.5803 18.4053 62.975 18.608C63.3803 18.8107 63.8497 18.912 64.383 18.912C64.9163 18.912 65.3643 18.848 65.727 18.72C66.0897 18.5813 66.3617 18.384 66.543 18.128C66.735 17.8613 66.831 17.5467 66.831 17.184C66.831 16.8213 66.7457 16.5067 66.575 16.24C66.415 15.9627 66.1057 15.7067 65.647 15.472C65.199 15.2373 64.5323 14.9973 63.647 14.752C62.8577 14.528 62.2177 14.2827 61.727 14.016C61.247 13.7493 60.895 13.424 60.671 13.04C60.4577 12.656 60.351 12.1813 60.351 11.616C60.351 10.976 60.5003 10.416 60.799 9.936C61.1083 9.44533 61.5457 9.06667 62.111 8.8C62.6763 8.52267 63.3483 8.384 64.127 8.384C64.9057 8.384 65.5723 8.544 66.127 8.864C66.6817 9.17333 67.119 9.6 67.439 10.144C67.7697 10.688 67.9777 11.3067 68.063 12L66.623 12.096C66.559 11.6373 66.4257 11.232 66.223 10.88C66.0203 10.5173 65.743 10.2347 65.391 10.032C65.039 9.82933 64.607 9.728 64.095 9.728C63.391 9.728 62.831 9.89867 62.415 10.24C61.999 10.5707 61.791 11.008 61.791 11.552C61.791 11.904 61.8657 12.1973 62.015 12.432C62.175 12.656 62.4523 12.8587 62.847 13.04C63.2417 13.2107 63.7963 13.3973 64.511 13.6C65.439 13.856 66.175 14.144 66.719 14.464C67.2737 14.784 67.6683 15.168 67.903 15.616C68.1483 16.0533 68.271 16.5867 68.271 17.216C68.271 17.8133 68.1057 18.3413 67.775 18.8C67.4443 19.2587 66.9857 19.616 66.399 19.872C65.8123 20.128 65.1297 20.256 64.351 20.256ZM73.6727 20.256C72.4461 20.256 71.5021 19.9627 70.8408 19.376C70.1794 18.7787 69.8221 18.0107 69.7688 17.072L71.1928 16.976C71.2568 17.6693 71.5128 18.1653 71.9608 18.464C72.4194 18.7627 72.9901 18.912 73.6727 18.912C74.1314 18.912 74.5634 18.848 74.9688 18.72C75.3741 18.5813 75.6994 18.3627 75.9448 18.064C76.2008 17.7547 76.3288 17.344 76.3288 16.832C76.3288 16.3307 76.2168 15.92 75.9928 15.6C75.7688 15.2693 75.4594 15.0293 75.0648 14.88C74.6808 14.72 74.2434 14.64 73.7528 14.64H72.8568V13.296H73.7528C74.1474 13.296 74.5101 13.2373 74.8408 13.12C75.1714 13.0027 75.4328 12.816 75.6248 12.56C75.8274 12.2933 75.9288 11.9467 75.9288 11.52C75.9288 10.9333 75.7421 10.4907 75.3688 10.192C74.9954 9.88267 74.4568 9.728 73.7528 9.728C73.0381 9.728 72.4941 9.872 72.1208 10.16C71.7581 10.448 71.5394 10.8427 71.4648 11.344L70.0247 11.248C70.1314 10.3947 70.5048 9.70667 71.1448 9.184C71.7848 8.65067 72.6541 8.384 73.7528 8.384C74.4888 8.384 75.1288 8.512 75.6728 8.768C76.2168 9.01333 76.6328 9.36533 76.9208 9.824C77.2194 10.2827 77.3688 10.8267 77.3688 11.456C77.3688 12.16 77.1448 12.7307 76.6968 13.168C76.2594 13.5947 75.6088 13.888 74.7448 14.048V13.76C75.6728 13.8667 76.4088 14.1973 76.9528 14.752C77.4968 15.3067 77.7688 16 77.7688 16.832C77.7688 17.5573 77.5928 18.176 77.2408 18.688C76.8888 19.2 76.4034 19.5893 75.7848 19.856C75.1661 20.1227 74.4621 20.256 73.6727 20.256Z" fill="#D8D9C3"/>
</svg>
