<svg width="100" height="30" viewBox="0 0 100 30" fill="none" xmlns="http://www.w3.org/2000/svg">
<rect x="0.5" y="0.5" width="99" height="29" fill="#181A1B" stroke="#D8D9C3"/>
<path d="M30.832 20.256C29.9253 20.256 29.1573 20.016 28.528 19.536C27.8987 19.056 27.4187 18.3733 27.088 17.488C26.768 16.6027 26.608 15.552 26.608 14.336C26.608 13.1093 26.768 12.0533 27.088 11.168C27.4187 10.2827 27.8987 9.6 28.528 9.12C29.1573 8.62933 29.9253 8.384 30.832 8.384C31.8347 8.384 32.688 8.71467 33.392 9.376C34.096 10.0267 34.5653 10.9387 34.8 12.112L33.328 12.208C33.1467 11.3867 32.832 10.768 32.384 10.352C31.9467 9.936 31.4293 9.728 30.832 9.728C30.224 9.728 29.712 9.90933 29.296 10.272C28.8907 10.624 28.5813 11.1467 28.368 11.84C28.1547 12.5227 28.048 13.3547 28.048 14.336C28.048 15.3067 28.1547 16.1333 28.368 16.816C28.5813 17.4987 28.8907 18.0213 29.296 18.384C29.712 18.736 30.224 18.912 30.832 18.912C31.4933 18.912 32.0533 18.6827 32.512 18.224C32.9707 17.7653 33.28 17.0827 33.44 16.176L34.896 16.256C34.6933 17.504 34.2347 18.4853 33.52 19.2C32.8053 19.904 31.9093 20.256 30.832 20.256ZM37.1938 20V8.64H38.5378V13.392L38.3778 13.36C38.4844 12.8907 38.6658 12.5067 38.9218 12.208C39.1778 11.9093 39.4924 11.6907 39.8658 11.552C40.2391 11.4027 40.6444 11.328 41.0818 11.328C41.6898 11.328 42.2018 11.4667 42.6178 11.744C43.0444 12.0107 43.3644 12.3893 43.5778 12.88C43.8018 13.36 43.9138 13.9147 43.9138 14.544V20H42.5698V14.928C42.5698 14.1067 42.4204 13.4987 42.1218 13.104C41.8338 12.7093 41.3911 12.512 40.7938 12.512C40.1111 12.512 39.5618 12.72 39.1458 13.136C38.7404 13.552 38.5378 14.1547 38.5378 14.944V20H37.1938ZM50.1315 20.192C49.3315 20.192 48.6382 20.0107 48.0515 19.648C47.4755 19.2853 47.0275 18.7733 46.7075 18.112C46.3982 17.44 46.2435 16.656 46.2435 15.76C46.2435 14.864 46.3982 14.0853 46.7075 13.424C47.0275 12.7627 47.4702 12.2507 48.0355 11.888C48.6115 11.5147 49.2888 11.328 50.0675 11.328C50.8035 11.328 51.4542 11.504 52.0195 11.856C52.5848 12.1973 53.0275 12.6987 53.3475 13.36C53.6675 14.0213 53.8275 14.8267 53.8275 15.776V16.176H47.6515C47.7048 17.0827 47.9448 17.7653 48.3715 18.224C48.8088 18.6827 49.3955 18.912 50.1315 18.912C50.6862 18.912 51.1395 18.784 51.4915 18.528C51.8542 18.2613 52.1048 17.9147 52.2435 17.488L53.6835 17.6C53.4595 18.3573 53.0328 18.9813 52.4035 19.472C51.7848 19.952 51.0275 20.192 50.1315 20.192ZM47.6515 14.992H52.3555C52.2915 14.1707 52.0515 13.568 51.6355 13.184C51.2195 12.8 50.6968 12.608 50.0675 12.608C49.4168 12.608 48.8782 12.8107 48.4515 13.216C48.0355 13.6107 47.7688 14.2027 47.6515 14.992ZM59.7413 20.192C59.0053 20.192 58.3706 20.064 57.8373 19.808C57.3039 19.552 56.8826 19.2107 56.5733 18.784C56.2746 18.3467 56.1039 17.8613 56.0613 17.328L57.4693 17.232C57.5546 17.7547 57.7839 18.1653 58.1573 18.464C58.5413 18.7627 59.0693 18.912 59.7413 18.912C60.3706 18.912 60.8559 18.8213 61.1973 18.64C61.5493 18.4587 61.7253 18.176 61.7253 17.792C61.7253 17.5467 61.6666 17.344 61.5493 17.184C61.4319 17.024 61.2133 16.8907 60.8933 16.784C60.5733 16.6667 60.1039 16.5547 59.4852 16.448C58.6639 16.2987 58.0186 16.1173 57.5493 15.904C57.0906 15.68 56.7653 15.4027 56.5733 15.072C56.3813 14.7413 56.2853 14.3467 56.2853 13.888C56.2853 13.3973 56.4079 12.96 56.6533 12.576C56.8986 12.192 57.2613 11.888 57.7413 11.664C58.2213 11.44 58.8079 11.328 59.5013 11.328C60.2053 11.328 60.7919 11.456 61.2613 11.712C61.7413 11.9573 62.1199 12.288 62.3973 12.704C62.6746 13.1093 62.8559 13.5573 62.9413 14.048L61.5333 14.144C61.4693 13.8453 61.3466 13.584 61.1653 13.36C60.9946 13.1253 60.7653 12.944 60.4773 12.816C60.1999 12.6773 59.8693 12.608 59.4852 12.608C58.8666 12.608 58.4079 12.7307 58.1093 12.976C57.8106 13.2213 57.6613 13.5253 57.6613 13.888C57.6613 14.176 57.7306 14.4053 57.8693 14.576C58.0079 14.7467 58.2319 14.8853 58.5413 14.992C58.8506 15.088 59.2613 15.1787 59.7733 15.264C60.6479 15.4027 61.3253 15.584 61.8053 15.808C62.2853 16.0213 62.6213 16.288 62.8133 16.608C63.0053 16.928 63.1013 17.3227 63.1013 17.792C63.1013 18.2933 62.9519 18.7253 62.6533 19.088C62.3653 19.44 61.9653 19.712 61.4533 19.904C60.9519 20.096 60.3813 20.192 59.7413 20.192ZM69.335 20.192C68.599 20.192 67.9643 20.064 67.431 19.808C66.8977 19.552 66.4763 19.2107 66.167 18.784C65.8683 18.3467 65.6977 17.8613 65.655 17.328L67.063 17.232C67.1483 17.7547 67.3777 18.1653 67.751 18.464C68.135 18.7627 68.663 18.912 69.335 18.912C69.9643 18.912 70.4497 18.8213 70.791 18.64C71.143 18.4587 71.319 18.176 71.319 17.792C71.319 17.5467 71.2603 17.344 71.143 17.184C71.0257 17.024 70.807 16.8907 70.487 16.784C70.167 16.6667 69.6977 16.5547 69.079 16.448C68.2577 16.2987 67.6123 16.1173 67.143 15.904C66.6843 15.68 66.359 15.4027 66.167 15.072C65.975 14.7413 65.879 14.3467 65.879 13.888C65.879 13.3973 66.0017 12.96 66.247 12.576C66.4923 12.192 66.855 11.888 67.335 11.664C67.815 11.44 68.4017 11.328 69.095 11.328C69.799 11.328 70.3857 11.456 70.855 11.712C71.335 11.9573 71.7137 12.288 71.991 12.704C72.2683 13.1093 72.4497 13.5573 72.535 14.048L71.127 14.144C71.063 13.8453 70.9403 13.584 70.759 13.36C70.5883 13.1253 70.359 12.944 70.071 12.816C69.7937 12.6773 69.463 12.608 69.079 12.608C68.4603 12.608 68.0017 12.7307 67.703 12.976C67.4043 13.2213 67.255 13.5253 67.255 13.888C67.255 14.176 67.3243 14.4053 67.463 14.576C67.6017 14.7467 67.8257 14.8853 68.135 14.992C68.4443 15.088 68.855 15.1787 69.367 15.264C70.2417 15.4027 70.919 15.584 71.399 15.808C71.879 16.0213 72.215 16.288 72.407 16.608C72.599 16.928 72.695 17.3227 72.695 17.792C72.695 18.2933 72.5457 18.7253 72.247 19.088C71.959 19.44 71.559 19.712 71.047 19.904C70.5457 20.096 69.975 20.192 69.335 20.192Z" fill="#D8D9C3"/>
</svg>
