<svg width="100" height="30" viewBox="0 0 100 30" fill="none" xmlns="http://www.w3.org/2000/svg">
<rect x="0.5" y="0.5" width="99" height="29" fill="#181A1B" stroke="#D8D9C3"/>
<path d="M25.832 20.256C24.9253 20.256 24.1573 20.016 23.528 19.536C22.8987 19.056 22.4187 18.3733 22.088 17.488C21.768 16.6027 21.608 15.552 21.608 14.336C21.608 13.1093 21.768 12.0533 22.088 11.168C22.4187 10.2827 22.8987 9.6 23.528 9.12C24.1573 8.62933 24.9253 8.384 25.832 8.384C26.8347 8.384 27.688 8.71467 28.392 9.376C29.096 10.0267 29.5653 10.9387 29.8 12.112L28.328 12.208C28.1467 11.3867 27.832 10.768 27.384 10.352C26.9467 9.936 26.4293 9.728 25.832 9.728C25.224 9.728 24.712 9.90933 24.296 10.272C23.8907 10.624 23.5813 11.1467 23.368 11.84C23.1547 12.5227 23.048 13.3547 23.048 14.336C23.048 15.3067 23.1547 16.1333 23.368 16.816C23.5813 17.4987 23.8907 18.0213 24.296 18.384C24.712 18.736 25.224 18.912 25.832 18.912C26.4933 18.912 27.0533 18.6827 27.512 18.224C27.9707 17.7653 28.28 17.0827 28.44 16.176L29.896 16.256C29.6933 17.504 29.2347 18.4853 28.52 19.2C27.8053 19.904 26.9093 20.256 25.832 20.256ZM35.2818 20V11.52H36.6258V20H35.2818ZM31.8738 20V18.816H39.5538V20H31.8738ZM32.0338 12.704V11.52H36.6258V12.704H32.0338ZM35.1538 10.192V8.624H36.5618V10.192H35.1538ZM41.5315 20V11.52H42.7635L42.8115 13.68L42.6515 13.536C42.7582 13.0347 42.9502 12.624 43.2275 12.304C43.5155 11.9733 43.8568 11.728 44.2515 11.568C44.6462 11.408 45.0622 11.328 45.4995 11.328C46.1502 11.328 46.6888 11.472 47.1155 11.76C47.5528 12.048 47.8835 12.4373 48.1075 12.928C48.3315 13.408 48.4435 13.9467 48.4435 14.544V20H47.0995V14.928C47.0995 14.1387 46.9448 13.5413 46.6355 13.136C46.3262 12.72 45.8515 12.512 45.2115 12.512C44.7742 12.512 44.3795 12.608 44.0275 12.8C43.6755 12.9813 43.3928 13.2533 43.1795 13.616C42.9768 13.968 42.8755 14.4053 42.8755 14.928V20H41.5315ZM54.7253 20.192C53.9253 20.192 53.2319 20.0107 52.6453 19.648C52.0693 19.2853 51.6213 18.7733 51.3013 18.112C50.9919 17.44 50.8372 16.656 50.8372 15.76C50.8372 14.864 50.9919 14.0853 51.3013 13.424C51.6213 12.7627 52.0639 12.2507 52.6293 11.888C53.2053 11.5147 53.8826 11.328 54.6613 11.328C55.3973 11.328 56.0479 11.504 56.6133 11.856C57.1786 12.1973 57.6213 12.6987 57.9413 13.36C58.2613 14.0213 58.4213 14.8267 58.4213 15.776V16.176H52.2453C52.2986 17.0827 52.5386 17.7653 52.9653 18.224C53.4026 18.6827 53.9893 18.912 54.7253 18.912C55.2799 18.912 55.7333 18.784 56.0853 18.528C56.4479 18.2613 56.6986 17.9147 56.8373 17.488L58.2773 17.6C58.0533 18.3573 57.6266 18.9813 56.9973 19.472C56.3786 19.952 55.6213 20.192 54.7253 20.192ZM52.2453 14.992H56.9493C56.8853 14.1707 56.6453 13.568 56.2293 13.184C55.8133 12.8 55.2906 12.608 54.6613 12.608C54.0106 12.608 53.4719 12.8107 53.0453 13.216C52.6293 13.6107 52.3626 14.2027 52.2453 14.992ZM60.015 20V11.52H61.247L61.295 13.408L61.135 13.376C61.231 12.7467 61.4337 12.2507 61.743 11.888C62.063 11.5147 62.4683 11.328 62.959 11.328C63.4603 11.328 63.8443 11.5093 64.111 11.872C64.3883 12.2347 64.559 12.768 64.623 13.472H64.463C64.559 12.8107 64.7723 12.288 65.103 11.904C65.4443 11.52 65.871 11.328 66.383 11.328C67.0657 11.328 67.5617 11.5627 67.871 12.032C68.1803 12.5013 68.335 13.28 68.335 14.368V20H66.991V14.56C66.991 13.8027 66.911 13.2747 66.751 12.976C66.591 12.6667 66.3403 12.512 65.999 12.512C65.775 12.512 65.5777 12.5867 65.407 12.736C65.2363 12.8747 65.0977 13.0987 64.991 13.408C64.895 13.7173 64.847 14.112 64.847 14.592V20H63.503V14.56C63.503 13.8347 63.423 13.312 63.263 12.992C63.1137 12.672 62.863 12.512 62.511 12.512C62.287 12.512 62.0897 12.5867 61.919 12.736C61.7483 12.8747 61.6097 13.0987 61.503 13.408C61.407 13.7173 61.359 14.112 61.359 14.592V20H60.015ZM72.6488 20.192C72.1154 20.192 71.6354 20.096 71.2088 19.904C70.7821 19.712 70.4461 19.4453 70.2008 19.104C69.9554 18.752 69.8328 18.3467 69.8328 17.888C69.8328 17.1627 70.0461 16.6027 70.4728 16.208C70.9101 15.8027 71.5928 15.5093 72.5208 15.328L75.3688 14.752C75.3688 14.0267 75.2034 13.488 74.8728 13.136C74.5528 12.784 74.0888 12.608 73.4808 12.608C72.8941 12.608 72.4354 12.7413 72.1048 13.008C71.7741 13.264 71.5448 13.6373 71.4168 14.128L69.9928 14.016C70.1528 13.216 70.5314 12.5707 71.1288 12.08C71.7368 11.5787 72.5208 11.328 73.4808 11.328C74.5048 11.328 75.2994 11.6373 75.8648 12.256C76.4301 12.864 76.7128 13.7067 76.7128 14.784V18.304C76.7128 18.496 76.7554 18.6293 76.8408 18.704C76.9261 18.7787 77.0541 18.816 77.2248 18.816H77.7688V20C77.7048 20.0107 77.6034 20.016 77.4648 20.016C77.3261 20.0267 77.1928 20.032 77.0648 20.032C76.7021 20.032 76.3928 19.9733 76.1368 19.856C75.8914 19.7387 75.7048 19.552 75.5768 19.296C75.4488 19.0293 75.3794 18.688 75.3688 18.272H75.6248C75.5501 18.6347 75.3688 18.9653 75.0808 19.264C74.8034 19.552 74.4514 19.7813 74.0248 19.952C73.5981 20.112 73.1394 20.192 72.6488 20.192ZM72.7768 19.008C73.3528 19.008 73.8328 18.912 74.2168 18.72C74.6008 18.5173 74.8888 18.24 75.0808 17.888C75.2728 17.5253 75.3688 17.1093 75.3688 16.64V15.904L72.7768 16.416C72.2008 16.5227 71.8008 16.688 71.5768 16.912C71.3528 17.1253 71.2408 17.408 71.2408 17.76C71.2408 18.1547 71.3741 18.464 71.6408 18.688C71.9181 18.9013 72.2968 19.008 72.7768 19.008Z" fill="#D8D9C3"/>
</svg>
