<svg width="100" height="30" viewBox="0 0 100 30" fill="none" xmlns="http://www.w3.org/2000/svg">
<rect x="0.5" y="0.5" width="99" height="29" fill="#181A1B" stroke="#D8D9C3"/>
<path d="M20.832 20.256C19.9253 20.256 19.1573 20.016 18.528 19.536C17.8987 19.056 17.4187 18.3733 17.088 17.488C16.768 16.6027 16.608 15.552 16.608 14.336C16.608 13.1093 16.768 12.0533 17.088 11.168C17.4187 10.2827 17.8987 9.6 18.528 9.12C19.1573 8.62933 19.9253 8.384 20.832 8.384C21.8347 8.384 22.688 8.71467 23.392 9.376C24.096 10.0267 24.5653 10.9387 24.8 12.112L23.328 12.208C23.1467 11.3867 22.832 10.768 22.384 10.352C21.9467 9.936 21.4293 9.728 20.832 9.728C20.224 9.728 19.712 9.90933 19.296 10.272C18.8907 10.624 18.5813 11.1467 18.368 11.84C18.1547 12.5227 18.048 13.3547 18.048 14.336C18.048 15.3067 18.1547 16.1333 18.368 16.816C18.5813 17.4987 18.8907 18.0213 19.296 18.384C19.712 18.736 20.224 18.912 20.832 18.912C21.4933 18.912 22.0533 18.6827 22.512 18.224C22.9707 17.7653 23.28 17.0827 23.44 16.176L24.896 16.256C24.6933 17.504 24.2347 18.4853 23.52 19.2C22.8053 19.904 21.9093 20.256 20.832 20.256ZM30.3938 20.192C29.6151 20.192 28.9324 20.0107 28.3458 19.648C27.7698 19.2853 27.3218 18.7733 27.0018 18.112C26.6818 17.44 26.5218 16.656 26.5218 15.76C26.5218 14.8533 26.6818 14.0693 27.0018 13.408C27.3218 12.7467 27.7698 12.2347 28.3458 11.872C28.9324 11.5093 29.6151 11.328 30.3938 11.328C31.1724 11.328 31.8498 11.5093 32.4258 11.872C33.0124 12.2347 33.4658 12.7467 33.7858 13.408C34.1058 14.0693 34.2658 14.8533 34.2658 15.76C34.2658 16.656 34.1058 17.44 33.7858 18.112C33.4658 18.7733 33.0124 19.2853 32.4258 19.648C31.8498 20.0107 31.1724 20.192 30.3938 20.192ZM30.3938 18.912C31.1724 18.912 31.7751 18.6347 32.2018 18.08C32.6391 17.5147 32.8578 16.7413 32.8578 15.76C32.8578 14.7787 32.6391 14.0107 32.2018 13.456C31.7751 12.8907 31.1724 12.608 30.3938 12.608C29.6151 12.608 29.0071 12.8907 28.5698 13.456C28.1431 14.0107 27.9298 14.7787 27.9298 15.76C27.9298 16.7413 28.1431 17.5147 28.5698 18.08C29.0071 18.6347 29.6151 18.912 30.3938 18.912ZM39.9875 20.192C39.2088 20.192 38.5262 20.0107 37.9395 19.648C37.3635 19.2853 36.9155 18.7733 36.5955 18.112C36.2755 17.44 36.1155 16.656 36.1155 15.76C36.1155 14.8533 36.2755 14.0693 36.5955 13.408C36.9155 12.7467 37.3635 12.2347 37.9395 11.872C38.5262 11.5093 39.2088 11.328 39.9875 11.328C40.7662 11.328 41.4435 11.5093 42.0195 11.872C42.6062 12.2347 43.0595 12.7467 43.3795 13.408C43.6995 14.0693 43.8595 14.8533 43.8595 15.76C43.8595 16.656 43.6995 17.44 43.3795 18.112C43.0595 18.7733 42.6062 19.2853 42.0195 19.648C41.4435 20.0107 40.7662 20.192 39.9875 20.192ZM39.9875 18.912C40.7662 18.912 41.3688 18.6347 41.7955 18.08C42.2328 17.5147 42.4515 16.7413 42.4515 15.76C42.4515 14.7787 42.2328 14.0107 41.7955 13.456C41.3688 12.8907 40.7662 12.608 39.9875 12.608C39.2088 12.608 38.6008 12.8907 38.1635 13.456C37.7368 14.0107 37.5235 14.7787 37.5235 15.76C37.5235 16.7413 37.7368 17.5147 38.1635 18.08C38.6008 18.6347 39.2088 18.912 39.9875 18.912ZM46.2213 20V8.64H47.5653V16.08L51.6933 11.52H53.4853L50.1413 15.12L53.6453 20H52.0133L49.2293 16.032L47.5653 17.792V20H46.2213ZM59.063 20V11.52H60.407V20H59.063ZM55.655 20V18.816H63.335V20H55.655ZM55.815 12.704V11.52H60.407V12.704H55.815ZM58.935 10.192V8.624H60.343V10.192H58.935ZM65.3128 20V11.52H66.5448L66.5928 13.68L66.4328 13.536C66.5394 13.0347 66.7314 12.624 67.0088 12.304C67.2968 11.9733 67.6381 11.728 68.0328 11.568C68.4274 11.408 68.8434 11.328 69.2808 11.328C69.9314 11.328 70.4701 11.472 70.8968 11.76C71.3341 12.048 71.6648 12.4373 71.8888 12.928C72.1128 13.408 72.2248 13.9467 72.2248 14.544V20H70.8808V14.928C70.8808 14.1387 70.7261 13.5413 70.4168 13.136C70.1074 12.72 69.6328 12.512 68.9928 12.512C68.5554 12.512 68.1608 12.608 67.8088 12.8C67.4568 12.9813 67.1741 13.2533 66.9608 13.616C66.7581 13.968 66.6568 14.4053 66.6568 14.928V20H65.3128ZM78.3145 22.592C77.7065 22.592 77.1572 22.4907 76.6665 22.288C76.1758 22.0853 75.7652 21.7973 75.4345 21.424C75.1038 21.0507 74.8798 20.6187 74.7625 20.128L76.1705 20.032C76.2985 20.4267 76.5225 20.736 76.8425 20.96C77.1732 21.1947 77.6638 21.312 78.3145 21.312C79.0825 21.312 79.6692 21.1573 80.0745 20.848C80.4905 20.5387 80.6985 20.0747 80.6985 19.456V18.08C80.4958 18.528 80.1705 18.8853 79.7225 19.152C79.2745 19.4187 78.7732 19.552 78.2185 19.552C77.5038 19.552 76.8638 19.376 76.2985 19.024C75.7438 18.672 75.3065 18.1867 74.9865 17.568C74.6772 16.9493 74.5225 16.24 74.5225 15.44C74.5225 14.6293 74.6772 13.92 74.9865 13.312C75.2958 12.6933 75.7225 12.208 76.2665 11.856C76.8212 11.504 77.4505 11.328 78.1545 11.328C78.7518 11.328 79.2852 11.4667 79.7545 11.744C80.2345 12.0213 80.5705 12.3947 80.7625 12.864V11.52H82.0425V19.424C82.0425 20.0853 81.8932 20.6507 81.5945 21.12C81.2958 21.6 80.8692 21.9627 80.3145 22.208C79.7598 22.464 79.0932 22.592 78.3145 22.592ZM78.2825 18.272C79.0078 18.272 79.5892 18.0213 80.0265 17.52C80.4638 17.008 80.6878 16.3147 80.6985 15.44C80.7092 14.8533 80.6132 14.352 80.4105 13.936C80.2185 13.5093 79.9358 13.184 79.5625 12.96C79.1998 12.7253 78.7732 12.608 78.2825 12.608C77.5358 12.608 76.9545 12.864 76.5385 13.376C76.1332 13.8773 75.9305 14.5653 75.9305 15.44C75.9305 16.3147 76.1385 17.008 76.5545 17.52C76.9812 18.0213 77.5572 18.272 78.2825 18.272Z" fill="#D8D9C3"/>
</svg>
