<svg width="100" height="30" viewBox="0 0 100 30" fill="none" xmlns="http://www.w3.org/2000/svg">
<rect x="0.5" y="0.5" width="99" height="29" fill="#181A1B" stroke="#D8D9C3"/>
<path d="M22.44 20V8.64H25.128C26.1093 8.64 26.9627 8.864 27.688 9.312C28.424 9.74933 28.9893 10.3947 29.384 11.248C29.7893 12.0907 29.992 13.12 29.992 14.336C29.992 15.552 29.7893 16.5813 29.384 17.424C28.9893 18.2667 28.424 18.9067 27.688 19.344C26.9627 19.7813 26.1093 20 25.128 20H22.44ZM23.816 18.656H25.048C26.1573 18.656 27.016 18.2987 27.624 17.584C28.2427 16.8587 28.552 15.776 28.552 14.336C28.552 12.896 28.2427 11.8133 27.624 11.088C27.016 10.352 26.1573 9.984 25.048 9.984H23.816V18.656ZM32.3538 22.4V21.216H35.0418C35.4578 21.216 35.7671 21.1253 35.9698 20.944C36.1831 20.7627 36.2898 20.416 36.2898 19.904V11.52H37.6338V20C37.6338 20.7787 37.4418 21.3707 37.0578 21.776C36.6738 22.192 36.0551 22.4 35.2018 22.4H32.3538ZM32.5138 12.704V11.52H37.0578V12.704H32.5138ZM36.2098 10.192V8.624H37.6178V10.192H36.2098ZM43.8675 20.192C43.3342 20.192 42.8542 20.096 42.4275 19.904C42.0008 19.712 41.6648 19.4453 41.4195 19.104C41.1742 18.752 41.0515 18.3467 41.0515 17.888C41.0515 17.1627 41.2648 16.6027 41.6915 16.208C42.1288 15.8027 42.8115 15.5093 43.7395 15.328L46.5875 14.752C46.5875 14.0267 46.4222 13.488 46.0915 13.136C45.7715 12.784 45.3075 12.608 44.6995 12.608C44.1128 12.608 43.6542 12.7413 43.3235 13.008C42.9928 13.264 42.7635 13.6373 42.6355 14.128L41.2115 14.016C41.3715 13.216 41.7502 12.5707 42.3475 12.08C42.9555 11.5787 43.7395 11.328 44.6995 11.328C45.7235 11.328 46.5182 11.6373 47.0835 12.256C47.6488 12.864 47.9315 13.7067 47.9315 14.784V18.304C47.9315 18.496 47.9742 18.6293 48.0595 18.704C48.1448 18.7787 48.2728 18.816 48.4435 18.816H48.9875V20C48.9235 20.0107 48.8222 20.016 48.6835 20.016C48.5448 20.0267 48.4115 20.032 48.2835 20.032C47.9208 20.032 47.6115 19.9733 47.3555 19.856C47.1102 19.7387 46.9235 19.552 46.7955 19.296C46.6675 19.0293 46.5982 18.688 46.5875 18.272H46.8435C46.7688 18.6347 46.5875 18.9653 46.2995 19.264C46.0222 19.552 45.6702 19.7813 45.2435 19.952C44.8168 20.112 44.3582 20.192 43.8675 20.192ZM43.9955 19.008C44.5715 19.008 45.0515 18.912 45.4355 18.72C45.8195 18.5173 46.1075 18.24 46.2995 17.888C46.4915 17.5253 46.5875 17.1093 46.5875 16.64V15.904L43.9955 16.416C43.4195 16.5227 43.0195 16.688 42.7955 16.912C42.5715 17.1253 42.4595 17.408 42.4595 17.76C42.4595 18.1547 42.5928 18.464 42.8595 18.688C43.1368 18.9013 43.5155 19.008 43.9955 19.008ZM51.1253 20V11.52H52.3573L52.4053 13.68L52.2453 13.536C52.3519 13.0347 52.5439 12.624 52.8213 12.304C53.1093 11.9733 53.4506 11.728 53.8453 11.568C54.2399 11.408 54.6559 11.328 55.0933 11.328C55.7439 11.328 56.2826 11.472 56.7093 11.76C57.1466 12.048 57.4773 12.4373 57.7013 12.928C57.9253 13.408 58.0373 13.9467 58.0373 14.544V20H56.6933V14.928C56.6933 14.1387 56.5386 13.5413 56.2293 13.136C55.9199 12.72 55.4453 12.512 54.8053 12.512C54.3679 12.512 53.9733 12.608 53.6213 12.8C53.2693 12.9813 52.9866 13.2533 52.7733 13.616C52.5706 13.968 52.4693 14.4053 52.4693 14.928V20H51.1253ZM64.127 22.592C63.519 22.592 62.9697 22.4907 62.479 22.288C61.9883 22.0853 61.5777 21.7973 61.247 21.424C60.9163 21.0507 60.6923 20.6187 60.575 20.128L61.983 20.032C62.111 20.4267 62.335 20.736 62.655 20.96C62.9857 21.1947 63.4763 21.312 64.127 21.312C64.895 21.312 65.4817 21.1573 65.887 20.848C66.303 20.5387 66.511 20.0747 66.511 19.456V18.08C66.3083 18.528 65.983 18.8853 65.535 19.152C65.087 19.4187 64.5857 19.552 64.031 19.552C63.3163 19.552 62.6763 19.376 62.111 19.024C61.5563 18.672 61.119 18.1867 60.799 17.568C60.4897 16.9493 60.335 16.24 60.335 15.44C60.335 14.6293 60.4897 13.92 60.799 13.312C61.1083 12.6933 61.535 12.208 62.079 11.856C62.6337 11.504 63.263 11.328 63.967 11.328C64.5643 11.328 65.0977 11.4667 65.567 11.744C66.047 12.0213 66.383 12.3947 66.575 12.864V11.52H67.855V19.424C67.855 20.0853 67.7057 20.6507 67.407 21.12C67.1083 21.6 66.6817 21.9627 66.127 22.208C65.5723 22.464 64.9057 22.592 64.127 22.592ZM64.095 18.272C64.8203 18.272 65.4017 18.0213 65.839 17.52C66.2763 17.008 66.5003 16.3147 66.511 15.44C66.5217 14.8533 66.4257 14.352 66.223 13.936C66.031 13.5093 65.7483 13.184 65.375 12.96C65.0123 12.7253 64.5857 12.608 64.095 12.608C63.3483 12.608 62.767 12.864 62.351 13.376C61.9457 13.8773 61.743 14.5653 61.743 15.44C61.743 16.3147 61.951 17.008 62.367 17.52C62.7937 18.0213 63.3697 18.272 64.095 18.272ZM73.7688 20.192C72.9901 20.192 72.3074 20.0107 71.7208 19.648C71.1448 19.2853 70.6968 18.7733 70.3768 18.112C70.0568 17.44 69.8968 16.656 69.8968 15.76C69.8968 14.8533 70.0568 14.0693 70.3768 13.408C70.6968 12.7467 71.1448 12.2347 71.7208 11.872C72.3074 11.5093 72.9901 11.328 73.7688 11.328C74.5474 11.328 75.2248 11.5093 75.8008 11.872C76.3874 12.2347 76.8408 12.7467 77.1608 13.408C77.4808 14.0693 77.6408 14.8533 77.6408 15.76C77.6408 16.656 77.4808 17.44 77.1608 18.112C76.8408 18.7733 76.3874 19.2853 75.8008 19.648C75.2248 20.0107 74.5474 20.192 73.7688 20.192ZM73.7688 18.912C74.5474 18.912 75.1501 18.6347 75.5768 18.08C76.0141 17.5147 76.2328 16.7413 76.2328 15.76C76.2328 14.7787 76.0141 14.0107 75.5768 13.456C75.1501 12.8907 74.5474 12.608 73.7688 12.608C72.9901 12.608 72.3821 12.8907 71.9448 13.456C71.5181 14.0107 71.3048 14.7787 71.3048 15.76C71.3048 16.7413 71.5181 17.5147 71.9448 18.08C72.3821 18.6347 72.9901 18.912 73.7688 18.912Z" fill="#D8D9C3"/>
</svg>
