<svg width="100" height="30" viewBox="0 0 100 30" fill="none" xmlns="http://www.w3.org/2000/svg">
<rect x="0.5" y="0.5" width="99" height="29" fill="#181A1B" stroke="#D8D9C3"/>
<path d="M25.768 20.256C24.968 20.256 24.2533 20.0373 23.624 19.6C23.0053 19.152 22.5147 18.4907 22.152 17.616C21.7893 16.7307 21.608 15.6373 21.608 14.336C21.608 13.1093 21.7733 12.0533 22.104 11.168C22.4453 10.2827 22.9307 9.6 23.56 9.12C24.1893 8.62933 24.9467 8.384 25.832 8.384C26.5253 8.384 27.1387 8.53867 27.672 8.848C28.216 9.15733 28.6693 9.58933 29.032 10.144C29.3947 10.688 29.656 11.3173 29.816 12.032L28.376 12.128C28.1947 11.424 27.8907 10.848 27.464 10.4C27.048 9.952 26.504 9.728 25.832 9.728C25.2453 9.728 24.744 9.90933 24.328 10.272C23.912 10.624 23.592 11.1467 23.368 11.84C23.1547 12.5227 23.048 13.3547 23.048 14.336C23.048 15.3067 23.16 16.1333 23.384 16.816C23.608 17.4987 23.928 18.0213 24.344 18.384C24.7707 18.736 25.288 18.912 25.896 18.912C26.44 18.912 26.904 18.7733 27.288 18.496C27.6827 18.208 27.992 17.8133 28.216 17.312C28.44 16.8 28.5627 16.2187 28.584 15.568H25.864V14.256H29.864V20H28.584L28.52 17.312L28.904 17.44C28.7547 17.984 28.5467 18.4693 28.28 18.896C28.024 19.3227 27.688 19.6587 27.272 19.904C26.8667 20.1387 26.3653 20.256 25.768 20.256ZM34.2738 20.192C33.7404 20.192 33.2604 20.096 32.8338 19.904C32.4071 19.712 32.0711 19.4453 31.8258 19.104C31.5804 18.752 31.4578 18.3467 31.4578 17.888C31.4578 17.1627 31.6711 16.6027 32.0978 16.208C32.5351 15.8027 33.2178 15.5093 34.1458 15.328L36.9938 14.752C36.9938 14.0267 36.8284 13.488 36.4978 13.136C36.1778 12.784 35.7138 12.608 35.1058 12.608C34.5191 12.608 34.0604 12.7413 33.7298 13.008C33.3991 13.264 33.1698 13.6373 33.0418 14.128L31.6178 14.016C31.7778 13.216 32.1564 12.5707 32.7538 12.08C33.3618 11.5787 34.1458 11.328 35.1058 11.328C36.1298 11.328 36.9244 11.6373 37.4898 12.256C38.0551 12.864 38.3378 13.7067 38.3378 14.784V18.304C38.3378 18.496 38.3804 18.6293 38.4658 18.704C38.5511 18.7787 38.6791 18.816 38.8498 18.816H39.3938V20C39.3298 20.0107 39.2284 20.016 39.0898 20.016C38.9511 20.0267 38.8178 20.032 38.6898 20.032C38.3271 20.032 38.0178 19.9733 37.7618 19.856C37.5164 19.7387 37.3298 19.552 37.2018 19.296C37.0738 19.0293 37.0044 18.688 36.9938 18.272H37.2498C37.1751 18.6347 36.9938 18.9653 36.7058 19.264C36.4284 19.552 36.0764 19.7813 35.6498 19.952C35.2231 20.112 34.7644 20.192 34.2738 20.192ZM34.4018 19.008C34.9778 19.008 35.4578 18.912 35.8418 18.72C36.2258 18.5173 36.5138 18.24 36.7058 17.888C36.8978 17.5253 36.9938 17.1093 36.9938 16.64V15.904L34.4018 16.416C33.8258 16.5227 33.4258 16.688 33.2018 16.912C32.9778 17.1253 32.8658 17.408 32.8658 17.76C32.8658 18.1547 32.9991 18.464 33.2658 18.688C33.5431 18.9013 33.9218 19.008 34.4018 19.008ZM40.8275 20V11.52H42.0595L42.1075 13.408L41.9475 13.376C42.0435 12.7467 42.2462 12.2507 42.5555 11.888C42.8755 11.5147 43.2808 11.328 43.7715 11.328C44.2728 11.328 44.6568 11.5093 44.9235 11.872C45.2008 12.2347 45.3715 12.768 45.4355 13.472H45.2755C45.3715 12.8107 45.5848 12.288 45.9155 11.904C46.2568 11.52 46.6835 11.328 47.1955 11.328C47.8782 11.328 48.3742 11.5627 48.6835 12.032C48.9928 12.5013 49.1475 13.28 49.1475 14.368V20H47.8035V14.56C47.8035 13.8027 47.7235 13.2747 47.5635 12.976C47.4035 12.6667 47.1528 12.512 46.8115 12.512C46.5875 12.512 46.3902 12.5867 46.2195 12.736C46.0488 12.8747 45.9102 13.0987 45.8035 13.408C45.7075 13.7173 45.6595 14.112 45.6595 14.592V20H44.3155V14.56C44.3155 13.8347 44.2355 13.312 44.0755 12.992C43.9262 12.672 43.6755 12.512 43.3235 12.512C43.0995 12.512 42.9022 12.5867 42.7315 12.736C42.5608 12.8747 42.4222 13.0987 42.3155 13.408C42.2195 13.7173 42.1715 14.112 42.1715 14.592V20H40.8275ZM54.4693 20V11.52H55.8133V20H54.4693ZM51.0613 20V18.816H58.7413V20H51.0613ZM51.2213 12.704V11.52H55.8133V12.704H51.2213ZM54.3413 10.192V8.624H55.7493V10.192H54.3413ZM60.719 20V11.52H61.951L61.999 13.68L61.839 13.536C61.9457 13.0347 62.1377 12.624 62.415 12.304C62.703 11.9733 63.0443 11.728 63.439 11.568C63.8337 11.408 64.2497 11.328 64.687 11.328C65.3377 11.328 65.8763 11.472 66.303 11.76C66.7403 12.048 67.071 12.4373 67.295 12.928C67.519 13.408 67.631 13.9467 67.631 14.544V20H66.287V14.928C66.287 14.1387 66.1323 13.5413 65.823 13.136C65.5137 12.72 65.039 12.512 64.399 12.512C63.9617 12.512 63.567 12.608 63.215 12.8C62.863 12.9813 62.5803 13.2533 62.367 13.616C62.1643 13.968 62.063 14.4053 62.063 14.928V20H60.719ZM73.7208 22.592C73.1128 22.592 72.5634 22.4907 72.0728 22.288C71.5821 22.0853 71.1714 21.7973 70.8408 21.424C70.5101 21.0507 70.2861 20.6187 70.1688 20.128L71.5768 20.032C71.7048 20.4267 71.9288 20.736 72.2488 20.96C72.5794 21.1947 73.0701 21.312 73.7208 21.312C74.4888 21.312 75.0754 21.1573 75.4808 20.848C75.8968 20.5387 76.1048 20.0747 76.1048 19.456V18.08C75.9021 18.528 75.5768 18.8853 75.1288 19.152C74.6808 19.4187 74.1794 19.552 73.6248 19.552C72.9101 19.552 72.2701 19.376 71.7048 19.024C71.1501 18.672 70.7128 18.1867 70.3928 17.568C70.0834 16.9493 69.9288 16.24 69.9288 15.44C69.9288 14.6293 70.0834 13.92 70.3928 13.312C70.7021 12.6933 71.1288 12.208 71.6728 11.856C72.2274 11.504 72.8568 11.328 73.5608 11.328C74.1581 11.328 74.6914 11.4667 75.1608 11.744C75.6408 12.0213 75.9768 12.3947 76.1688 12.864V11.52H77.4488V19.424C77.4488 20.0853 77.2994 20.6507 77.0008 21.12C76.7021 21.6 76.2754 21.9627 75.7208 22.208C75.1661 22.464 74.4994 22.592 73.7208 22.592ZM73.6888 18.272C74.4141 18.272 74.9954 18.0213 75.4328 17.52C75.8701 17.008 76.0941 16.3147 76.1048 15.44C76.1154 14.8533 76.0194 14.352 75.8168 13.936C75.6248 13.5093 75.3421 13.184 74.9688 12.96C74.6061 12.7253 74.1794 12.608 73.6888 12.608C72.9421 12.608 72.3608 12.864 71.9448 13.376C71.5394 13.8773 71.3368 14.5653 71.3368 15.44C71.3368 16.3147 71.5448 17.008 71.9608 17.52C72.3874 18.0213 72.9634 18.272 73.6888 18.272Z" fill="#D8D9C3"/>
</svg>
