<svg width="100" height="30" viewBox="0 0 100 30" fill="none" xmlns="http://www.w3.org/2000/svg">
<rect x="0.5" y="0.5" width="99" height="29" fill="#181A1B" stroke="#D8D9C3"/>
<path d="M6.4 20.256C5.65333 20.256 5.00267 20.096 4.448 19.776C3.89333 19.456 3.456 19.0027 3.136 18.416C2.82667 17.8187 2.66133 17.12 2.64 16.32L3.984 16.192C4.016 17.1093 4.22933 17.792 4.624 18.24C5.01867 18.688 5.61067 18.912 6.4 18.912C7.18933 18.912 7.78133 18.688 8.176 18.24C8.58133 17.7813 8.784 17.0987 8.784 16.192V8.64H10.16V16.192C10.16 17.4507 9.824 18.4427 9.152 19.168C8.48 19.8933 7.56267 20.256 6.4 20.256ZM15.2738 20.192C14.7404 20.192 14.2604 20.096 13.8338 19.904C13.4071 19.712 13.0711 19.4453 12.8258 19.104C12.5804 18.752 12.4578 18.3467 12.4578 17.888C12.4578 17.1627 12.6711 16.6027 13.0978 16.208C13.5351 15.8027 14.2178 15.5093 15.1458 15.328L17.9938 14.752C17.9938 14.0267 17.8284 13.488 17.4978 13.136C17.1778 12.784 16.7138 12.608 16.1058 12.608C15.5191 12.608 15.0604 12.7413 14.7298 13.008C14.3991 13.264 14.1698 13.6373 14.0418 14.128L12.6178 14.016C12.7778 13.216 13.1564 12.5707 13.7538 12.08C14.3618 11.5787 15.1458 11.328 16.1058 11.328C17.1298 11.328 17.9244 11.6373 18.4898 12.256C19.0551 12.864 19.3378 13.7067 19.3378 14.784V18.304C19.3378 18.496 19.3804 18.6293 19.4658 18.704C19.5511 18.7787 19.6791 18.816 19.8498 18.816H20.3938V20C20.3298 20.0107 20.2284 20.016 20.0898 20.016C19.9511 20.0267 19.8178 20.032 19.6898 20.032C19.3271 20.032 19.0178 19.9733 18.7618 19.856C18.5164 19.7387 18.3298 19.552 18.2018 19.296C18.0738 19.0293 18.0044 18.688 17.9938 18.272H18.2498C18.1751 18.6347 17.9938 18.9653 17.7058 19.264C17.4284 19.552 17.0764 19.7813 16.6498 19.952C16.2231 20.112 15.7644 20.192 15.2738 20.192ZM15.4018 19.008C15.9778 19.008 16.4578 18.912 16.8418 18.72C17.2258 18.5173 17.5138 18.24 17.7058 17.888C17.8978 17.5253 17.9938 17.1093 17.9938 16.64V15.904L15.4018 16.416C14.8258 16.5227 14.4258 16.688 14.2018 16.912C13.9778 17.1253 13.8658 17.408 13.8658 17.76C13.8658 18.1547 13.9991 18.464 14.2658 18.688C14.5431 18.9013 14.9218 19.008 15.4018 19.008ZM25.1395 20L21.9875 11.52H23.4595L25.9875 18.624L28.5155 11.52H29.9875L26.8355 20H25.1395ZM34.4613 20.192C33.9279 20.192 33.4479 20.096 33.0213 19.904C32.5946 19.712 32.2586 19.4453 32.0133 19.104C31.7679 18.752 31.6453 18.3467 31.6453 17.888C31.6453 17.1627 31.8586 16.6027 32.2853 16.208C32.7226 15.8027 33.4053 15.5093 34.3333 15.328L37.1813 14.752C37.1813 14.0267 37.0159 13.488 36.6853 13.136C36.3653 12.784 35.9013 12.608 35.2933 12.608C34.7066 12.608 34.2479 12.7413 33.9173 13.008C33.5866 13.264 33.3573 13.6373 33.2293 14.128L31.8053 14.016C31.9653 13.216 32.3439 12.5707 32.9413 12.08C33.5493 11.5787 34.3333 11.328 35.2933 11.328C36.3173 11.328 37.1119 11.6373 37.6773 12.256C38.2426 12.864 38.5253 13.7067 38.5253 14.784V18.304C38.5253 18.496 38.5679 18.6293 38.6533 18.704C38.7386 18.7787 38.8666 18.816 39.0373 18.816H39.5813V20C39.5173 20.0107 39.4159 20.016 39.2773 20.016C39.1386 20.0267 39.0053 20.032 38.8773 20.032C38.5146 20.032 38.2053 19.9733 37.9493 19.856C37.7039 19.7387 37.5173 19.552 37.3893 19.296C37.2613 19.0293 37.1919 18.688 37.1813 18.272H37.4373C37.3626 18.6347 37.1813 18.9653 36.8933 19.264C36.6159 19.552 36.2639 19.7813 35.8373 19.952C35.4106 20.112 34.9519 20.192 34.4613 20.192ZM34.5893 19.008C35.1653 19.008 35.6453 18.912 36.0293 18.72C36.4133 18.5173 36.7013 18.24 36.8933 17.888C37.0853 17.5253 37.1813 17.1093 37.1813 16.64V15.904L34.5893 16.416C34.0133 16.5227 33.6133 16.688 33.3893 16.912C33.1653 17.1253 33.0533 17.408 33.0533 17.76C33.0533 18.1547 33.1866 18.464 33.4533 18.688C33.7306 18.9013 34.1093 19.008 34.5893 19.008ZM45.351 20.256C44.551 20.256 43.8417 20.0907 43.223 19.76C42.6043 19.4293 42.1083 18.976 41.735 18.4C41.3617 17.8133 41.143 17.136 41.079 16.368L42.519 16.272C42.5937 16.8373 42.7537 17.3173 42.999 17.712C43.255 18.1067 43.5803 18.4053 43.975 18.608C44.3803 18.8107 44.8497 18.912 45.383 18.912C45.9163 18.912 46.3643 18.848 46.727 18.72C47.0897 18.5813 47.3617 18.384 47.543 18.128C47.735 17.8613 47.831 17.5467 47.831 17.184C47.831 16.8213 47.7457 16.5067 47.575 16.24C47.415 15.9627 47.1057 15.7067 46.647 15.472C46.199 15.2373 45.5323 14.9973 44.647 14.752C43.8577 14.528 43.2177 14.2827 42.727 14.016C42.247 13.7493 41.895 13.424 41.671 13.04C41.4577 12.656 41.351 12.1813 41.351 11.616C41.351 10.976 41.5003 10.416 41.799 9.936C42.1083 9.44533 42.5457 9.06667 43.111 8.8C43.6763 8.52267 44.3483 8.384 45.127 8.384C45.9057 8.384 46.5723 8.544 47.127 8.864C47.6817 9.17333 48.119 9.6 48.439 10.144C48.7697 10.688 48.9777 11.3067 49.063 12L47.623 12.096C47.559 11.6373 47.4257 11.232 47.223 10.88C47.0203 10.5173 46.743 10.2347 46.391 10.032C46.039 9.82933 45.607 9.728 45.095 9.728C44.391 9.728 43.831 9.89867 43.415 10.24C42.999 10.5707 42.791 11.008 42.791 11.552C42.791 11.904 42.8657 12.1973 43.015 12.432C43.175 12.656 43.4523 12.8587 43.847 13.04C44.2417 13.2107 44.7963 13.3973 45.511 13.6C46.439 13.856 47.175 14.144 47.719 14.464C48.2737 14.784 48.6683 15.168 48.903 15.616C49.1483 16.0533 49.271 16.5867 49.271 17.216C49.271 17.8133 49.1057 18.3413 48.775 18.8C48.4443 19.2587 47.9857 19.616 47.399 19.872C46.8123 20.128 46.1297 20.256 45.351 20.256ZM54.9928 20.192C54.2034 20.192 53.5154 20.0107 52.9288 19.648C52.3421 19.2853 51.8888 18.7733 51.5688 18.112C51.2488 17.44 51.0888 16.656 51.0888 15.76C51.0888 14.864 51.2488 14.0853 51.5688 13.424C51.8888 12.7627 52.3421 12.2507 52.9288 11.888C53.5154 11.5147 54.2034 11.328 54.9928 11.328C55.6221 11.328 56.1821 11.4453 56.6728 11.68C57.1634 11.904 57.5688 12.2347 57.8888 12.672C58.2088 13.1093 58.4274 13.6427 58.5448 14.272L57.1368 14.368C57.0088 13.8027 56.7528 13.3707 56.3688 13.072C55.9954 12.7627 55.5368 12.608 54.9928 12.608C54.2141 12.608 53.6008 12.8907 53.1528 13.456C52.7154 14.0107 52.4968 14.7787 52.4968 15.76C52.4968 16.7413 52.7154 17.5147 53.1528 18.08C53.6008 18.6347 54.2141 18.912 54.9928 18.912C55.5368 18.912 56.0061 18.752 56.4008 18.432C56.8061 18.112 57.0728 17.632 57.2008 16.992L58.6088 17.088C58.4914 17.7173 58.2674 18.2667 57.9368 18.736C57.6061 19.1947 57.1901 19.552 56.6888 19.808C56.1874 20.064 55.6221 20.192 54.9928 20.192ZM63.2105 20V11.52H64.3305L64.4585 13.664L64.3305 13.632C64.4372 12.9067 64.6665 12.3733 65.0185 12.032C65.3812 11.6907 65.8612 11.52 66.4585 11.52H68.2025V12.736H66.4745C66.0585 12.736 65.7065 12.8213 65.4185 12.992C65.1412 13.152 64.9278 13.392 64.7785 13.712C64.6292 14.0213 64.5545 14.4107 64.5545 14.88V20H63.2105ZM61.0025 20V18.816H67.2425V20H61.0025ZM61.0025 12.704V11.52H63.9465V12.704H61.0025ZM73.8443 20V11.52H75.1883V20H73.8443ZM70.4363 20V18.816H78.1163V20H70.4363ZM70.5963 12.704V11.52H75.1883V12.704H70.5963ZM73.7163 10.192V8.624H75.1243V10.192H73.7163ZM80.03 22.4V11.52H81.278L81.31 13.44L81.118 13.344C81.3313 12.6827 81.6833 12.1813 82.174 11.84C82.6753 11.4987 83.2513 11.328 83.902 11.328C84.7447 11.328 85.4327 11.536 85.966 11.952C86.51 12.368 86.91 12.912 87.166 13.584C87.422 14.256 87.55 14.9813 87.55 15.76C87.55 16.5387 87.422 17.264 87.166 17.936C86.91 18.608 86.51 19.152 85.966 19.568C85.4327 19.984 84.7447 20.192 83.902 20.192C83.4647 20.192 83.054 20.1173 82.67 19.968C82.2967 19.8187 81.9767 19.6107 81.71 19.344C81.454 19.0773 81.278 18.7627 81.182 18.4L81.374 18.176V22.4H80.03ZM83.774 18.912C84.51 18.912 85.086 18.6347 85.502 18.08C85.9287 17.5253 86.142 16.752 86.142 15.76C86.142 14.768 85.9287 13.9947 85.502 13.44C85.086 12.8853 84.51 12.608 83.774 12.608C83.2833 12.608 82.8567 12.7253 82.494 12.96C82.142 13.1947 81.8647 13.5467 81.662 14.016C81.47 14.4853 81.374 15.0667 81.374 15.76C81.374 16.4533 81.47 17.0347 81.662 17.504C81.854 17.9733 82.1313 18.3253 82.494 18.56C82.8567 18.7947 83.2833 18.912 83.774 18.912ZM94.3918 20C93.5704 20 92.9571 19.808 92.5518 19.424C92.1464 19.04 91.9438 18.4533 91.9438 17.664V9.536H93.2878V17.664C93.2878 18.0587 93.3784 18.352 93.5598 18.544C93.7411 18.7253 94.0184 18.816 94.3918 18.816H96.6638V20H94.3918ZM89.1438 12.704V11.52H96.6638V12.704H89.1438Z" fill="#D8D9C3"/>
</svg>
