<svg width="100" height="30" viewBox="0 0 100 30" fill="none" xmlns="http://www.w3.org/2000/svg">
<rect x="0.5" y="0.5" width="99" height="29" fill="#181A1B" stroke="#D8D9C3"/>
<path d="M34.4 20.256C33.6533 20.256 33.0027 20.096 32.448 19.776C31.8933 19.456 31.456 19.0027 31.136 18.416C30.8267 17.8187 30.6613 17.12 30.64 16.32L31.984 16.192C32.016 17.1093 32.2293 17.792 32.624 18.24C33.0187 18.688 33.6107 18.912 34.4 18.912C35.1893 18.912 35.7813 18.688 36.176 18.24C36.5813 17.7813 36.784 17.0987 36.784 16.192V8.64H38.16V16.192C38.16 17.4507 37.824 18.4427 37.152 19.168C36.48 19.8933 35.5627 20.256 34.4 20.256ZM43.2738 20.192C42.7404 20.192 42.2604 20.096 41.8338 19.904C41.4071 19.712 41.0711 19.4453 40.8258 19.104C40.5804 18.752 40.4578 18.3467 40.4578 17.888C40.4578 17.1627 40.6711 16.6027 41.0978 16.208C41.5351 15.8027 42.2178 15.5093 43.1458 15.328L45.9938 14.752C45.9938 14.0267 45.8284 13.488 45.4978 13.136C45.1778 12.784 44.7138 12.608 44.1058 12.608C43.5191 12.608 43.0604 12.7413 42.7298 13.008C42.3991 13.264 42.1698 13.6373 42.0418 14.128L40.6178 14.016C40.7778 13.216 41.1564 12.5707 41.7538 12.08C42.3618 11.5787 43.1458 11.328 44.1058 11.328C45.1298 11.328 45.9244 11.6373 46.4898 12.256C47.0551 12.864 47.3378 13.7067 47.3378 14.784V18.304C47.3378 18.496 47.3804 18.6293 47.4658 18.704C47.5511 18.7787 47.6791 18.816 47.8498 18.816H48.3938V20C48.3298 20.0107 48.2284 20.016 48.0898 20.016C47.9511 20.0267 47.8178 20.032 47.6898 20.032C47.3271 20.032 47.0178 19.9733 46.7618 19.856C46.5164 19.7387 46.3298 19.552 46.2018 19.296C46.0738 19.0293 46.0044 18.688 45.9938 18.272H46.2498C46.1751 18.6347 45.9938 18.9653 45.7058 19.264C45.4284 19.552 45.0764 19.7813 44.6498 19.952C44.2231 20.112 43.7644 20.192 43.2738 20.192ZM43.4018 19.008C43.9778 19.008 44.4578 18.912 44.8418 18.72C45.2258 18.5173 45.5138 18.24 45.7058 17.888C45.8978 17.5253 45.9938 17.1093 45.9938 16.64V15.904L43.4018 16.416C42.8258 16.5227 42.4258 16.688 42.2018 16.912C41.9778 17.1253 41.8658 17.408 41.8658 17.76C41.8658 18.1547 41.9991 18.464 42.2658 18.688C42.5431 18.9013 42.9218 19.008 43.4018 19.008ZM53.1395 20L49.9875 11.52H51.4595L53.9875 18.624L56.5155 11.52H57.9875L54.8355 20H53.1395ZM62.4613 20.192C61.9279 20.192 61.4479 20.096 61.0213 19.904C60.5946 19.712 60.2586 19.4453 60.0133 19.104C59.7679 18.752 59.6453 18.3467 59.6453 17.888C59.6453 17.1627 59.8586 16.6027 60.2853 16.208C60.7226 15.8027 61.4053 15.5093 62.3333 15.328L65.1813 14.752C65.1813 14.0267 65.0159 13.488 64.6853 13.136C64.3653 12.784 63.9013 12.608 63.2933 12.608C62.7066 12.608 62.2479 12.7413 61.9173 13.008C61.5866 13.264 61.3573 13.6373 61.2293 14.128L59.8053 14.016C59.9653 13.216 60.3439 12.5707 60.9413 12.08C61.5493 11.5787 62.3333 11.328 63.2933 11.328C64.3173 11.328 65.1119 11.6373 65.6773 12.256C66.2426 12.864 66.5253 13.7067 66.5253 14.784V18.304C66.5253 18.496 66.5679 18.6293 66.6533 18.704C66.7386 18.7787 66.8666 18.816 67.0373 18.816H67.5813V20C67.5173 20.0107 67.4159 20.016 67.2773 20.016C67.1386 20.0267 67.0053 20.032 66.8773 20.032C66.5146 20.032 66.2053 19.9733 65.9493 19.856C65.7039 19.7387 65.5173 19.552 65.3893 19.296C65.2613 19.0293 65.1919 18.688 65.1813 18.272H65.4373C65.3626 18.6347 65.1813 18.9653 64.8933 19.264C64.6159 19.552 64.2639 19.7813 63.8373 19.952C63.4106 20.112 62.9519 20.192 62.4613 20.192ZM62.5893 19.008C63.1653 19.008 63.6453 18.912 64.0293 18.72C64.4133 18.5173 64.7013 18.24 64.8933 17.888C65.0853 17.5253 65.1813 17.1093 65.1813 16.64V15.904L62.5893 16.416C62.0133 16.5227 61.6133 16.688 61.3893 16.912C61.1653 17.1253 61.0533 17.408 61.0533 17.76C61.0533 18.1547 61.1866 18.464 61.4533 18.688C61.7306 18.9013 62.1093 19.008 62.5893 19.008Z" fill="#D8D9C3"/>
</svg>
