<svg width="100" height="30" viewBox="0 0 100 30" fill="none" xmlns="http://www.w3.org/2000/svg">
<rect x="0.5" y="0.5" width="99" height="29" fill="#181A1B" stroke="#D8D9C3"/>
<path d="M20.192 18.72L18.048 9.92H18.176V20H16.8V8.64H18.88L21.12 17.984H20.48L22.72 8.64H24.8V20H23.424V9.92H23.552L21.408 18.72H20.192ZM30.3938 20.192C29.6151 20.192 28.9324 20.0107 28.3458 19.648C27.7698 19.2853 27.3218 18.7733 27.0018 18.112C26.6818 17.44 26.5218 16.656 26.5218 15.76C26.5218 14.8533 26.6818 14.0693 27.0018 13.408C27.3218 12.7467 27.7698 12.2347 28.3458 11.872C28.9324 11.5093 29.6151 11.328 30.3938 11.328C31.1724 11.328 31.8498 11.5093 32.4258 11.872C33.0124 12.2347 33.4658 12.7467 33.7858 13.408C34.1058 14.0693 34.2658 14.8533 34.2658 15.76C34.2658 16.656 34.1058 17.44 33.7858 18.112C33.4658 18.7733 33.0124 19.2853 32.4258 19.648C31.8498 20.0107 31.1724 20.192 30.3938 20.192ZM30.3938 18.912C31.1724 18.912 31.7751 18.6347 32.2018 18.08C32.6391 17.5147 32.8578 16.7413 32.8578 15.76C32.8578 14.7787 32.6391 14.0107 32.2018 13.456C31.7751 12.8907 31.1724 12.608 30.3938 12.608C29.6151 12.608 29.0071 12.8907 28.5698 13.456C28.1431 14.0107 27.9298 14.7787 27.9298 15.76C27.9298 16.7413 28.1431 17.5147 28.5698 18.08C29.0071 18.6347 29.6151 18.912 30.3938 18.912ZM36.5315 20V11.52H37.7635L37.8115 13.68L37.6515 13.536C37.7582 13.0347 37.9502 12.624 38.2275 12.304C38.5155 11.9733 38.8568 11.728 39.2515 11.568C39.6462 11.408 40.0622 11.328 40.4995 11.328C41.1502 11.328 41.6888 11.472 42.1155 11.76C42.5528 12.048 42.8835 12.4373 43.1075 12.928C43.3315 13.408 43.4435 13.9467 43.4435 14.544V20H42.0995V14.928C42.0995 14.1387 41.9448 13.5413 41.6355 13.136C41.3262 12.72 40.8515 12.512 40.2115 12.512C39.7742 12.512 39.3795 12.608 39.0275 12.8C38.6755 12.9813 38.3928 13.2533 38.1795 13.616C37.9768 13.968 37.8755 14.4053 37.8755 14.928V20H36.5315ZM49.5333 22.592C48.9253 22.592 48.3759 22.4907 47.8853 22.288C47.3946 22.0853 46.9839 21.7973 46.6533 21.424C46.3226 21.0507 46.0986 20.6187 45.9813 20.128L47.3893 20.032C47.5173 20.4267 47.7413 20.736 48.0613 20.96C48.3919 21.1947 48.8826 21.312 49.5333 21.312C50.3013 21.312 50.8879 21.1573 51.2933 20.848C51.7093 20.5387 51.9173 20.0747 51.9173 19.456V18.08C51.7146 18.528 51.3893 18.8853 50.9413 19.152C50.4933 19.4187 49.9919 19.552 49.4373 19.552C48.7226 19.552 48.0826 19.376 47.5173 19.024C46.9626 18.672 46.5253 18.1867 46.2053 17.568C45.8959 16.9493 45.7413 16.24 45.7413 15.44C45.7413 14.6293 45.8959 13.92 46.2053 13.312C46.5146 12.6933 46.9413 12.208 47.4853 11.856C48.0399 11.504 48.6693 11.328 49.3733 11.328C49.9706 11.328 50.5039 11.4667 50.9733 11.744C51.4533 12.0213 51.7893 12.3947 51.9813 12.864V11.52H53.2613V19.424C53.2613 20.0853 53.1119 20.6507 52.8133 21.12C52.5146 21.6 52.0879 21.9627 51.5333 22.208C50.9786 22.464 50.3119 22.592 49.5333 22.592ZM49.5013 18.272C50.2266 18.272 50.8079 18.0213 51.2453 17.52C51.6826 17.008 51.9066 16.3147 51.9173 15.44C51.9279 14.8533 51.8319 14.352 51.6293 13.936C51.4373 13.5093 51.1546 13.184 50.7813 12.96C50.4186 12.7253 49.9919 12.608 49.5013 12.608C48.7546 12.608 48.1733 12.864 47.7573 13.376C47.3519 13.8773 47.1493 14.5653 47.1493 15.44C47.1493 16.3147 47.3573 17.008 47.7733 17.52C48.1999 18.0213 48.7759 18.272 49.5013 18.272ZM59.175 20.192C58.3963 20.192 57.7137 20.0107 57.127 19.648C56.551 19.2853 56.103 18.7733 55.783 18.112C55.463 17.44 55.303 16.656 55.303 15.76C55.303 14.8533 55.463 14.0693 55.783 13.408C56.103 12.7467 56.551 12.2347 57.127 11.872C57.7137 11.5093 58.3963 11.328 59.175 11.328C59.9537 11.328 60.631 11.5093 61.207 11.872C61.7937 12.2347 62.247 12.7467 62.567 13.408C62.887 14.0693 63.047 14.8533 63.047 15.76C63.047 16.656 62.887 17.44 62.567 18.112C62.247 18.7733 61.7937 19.2853 61.207 19.648C60.631 20.0107 59.9537 20.192 59.175 20.192ZM59.175 18.912C59.9537 18.912 60.5563 18.6347 60.983 18.08C61.4203 17.5147 61.639 16.7413 61.639 15.76C61.639 14.7787 61.4203 14.0107 60.983 13.456C60.5563 12.8907 59.9537 12.608 59.175 12.608C58.3963 12.608 57.7883 12.8907 57.351 13.456C56.9243 14.0107 56.711 14.7787 56.711 15.76C56.711 16.7413 56.9243 17.5147 57.351 18.08C57.7883 18.6347 58.3963 18.912 59.175 18.912ZM65.4088 20V8.64H68.0968C69.0781 8.64 69.9314 8.864 70.6568 9.312C71.3928 9.74933 71.9581 10.3947 72.3528 11.248C72.7581 12.0907 72.9608 13.12 72.9608 14.336C72.9608 15.552 72.7581 16.5813 72.3528 17.424C71.9581 18.2667 71.3928 18.9067 70.6568 19.344C69.9314 19.7813 69.0781 20 68.0968 20H65.4088ZM66.7848 18.656H68.0168C69.1261 18.656 69.9848 18.2987 70.5928 17.584C71.2114 16.8587 71.5208 15.776 71.5208 14.336C71.5208 12.896 71.2114 11.8133 70.5928 11.088C69.9848 10.352 69.1261 9.984 68.0168 9.984H66.7848V18.656ZM75.0025 20V8.64H78.2025C79.4505 8.64 80.3892 8.91733 81.0185 9.472C81.6585 10.0267 81.9785 10.784 81.9785 11.744C81.9785 12.2133 81.8665 12.6347 81.6425 13.008C81.4185 13.3813 81.1038 13.6747 80.6985 13.888C80.2932 14.1013 79.8238 14.208 79.2905 14.208V14.112C79.9518 14.112 80.5172 14.224 80.9865 14.448C81.4665 14.672 81.8292 14.9867 82.0745 15.392C82.3305 15.7973 82.4585 16.2773 82.4585 16.832C82.4585 17.8133 82.1172 18.5867 81.4345 19.152C80.7518 19.7173 79.8078 20 78.6025 20H75.0025ZM76.3785 18.656H78.6185C79.4398 18.656 80.0425 18.496 80.4265 18.176C80.8212 17.856 81.0185 17.408 81.0185 16.832C81.0185 16.224 80.8158 15.7493 80.4105 15.408C80.0052 15.0667 79.4078 14.896 78.6185 14.896H76.3785V18.656ZM76.3785 13.552H78.2665C79.0558 13.552 79.6318 13.3973 79.9945 13.088C80.3572 12.7787 80.5385 12.3413 80.5385 11.776C80.5385 11.2 80.3572 10.7573 79.9945 10.448C79.6318 10.1387 79.0558 9.984 78.2665 9.984H76.3785V13.552Z" fill="#D8D9C3"/>
</svg>
