<svg width="100" height="30" viewBox="0 0 100 30" fill="none" xmlns="http://www.w3.org/2000/svg">
<rect x="0.5" y="0.5" width="99" height="29" fill="#181A1B" stroke="#D8D9C3"/>
<path d="M30.192 18.72L28.048 9.92H28.176V20H26.8V8.64H28.88L31.12 17.984H30.48L32.72 8.64H34.8V20H33.424V9.92H33.552L31.408 18.72H30.192ZM39.8018 20.192C38.9591 20.192 38.2871 19.9093 37.7858 19.344C37.2844 18.768 37.0338 17.9787 37.0338 16.976V11.52H38.3778V16.608C38.3778 17.4293 38.5218 18.0373 38.8098 18.432C39.1084 18.816 39.5618 19.008 40.1698 19.008C40.8311 19.008 41.3538 18.7947 41.7378 18.368C42.1218 17.9307 42.3138 17.3333 42.3138 16.576V11.52H43.6578V20H42.3778V17.904L42.5858 18.016C42.4151 18.7093 42.0898 19.248 41.6098 19.632C41.1298 20.0053 40.5271 20.192 39.8018 20.192ZM50.1475 20.192C49.4115 20.192 48.7768 20.064 48.2435 19.808C47.7102 19.552 47.2888 19.2107 46.9795 18.784C46.6808 18.3467 46.5102 17.8613 46.4675 17.328L47.8755 17.232C47.9608 17.7547 48.1902 18.1653 48.5635 18.464C48.9475 18.7627 49.4755 18.912 50.1475 18.912C50.7768 18.912 51.2622 18.8213 51.6035 18.64C51.9555 18.4587 52.1315 18.176 52.1315 17.792C52.1315 17.5467 52.0728 17.344 51.9555 17.184C51.8382 17.024 51.6195 16.8907 51.2995 16.784C50.9795 16.6667 50.5102 16.5547 49.8915 16.448C49.0702 16.2987 48.4248 16.1173 47.9555 15.904C47.4968 15.68 47.1715 15.4027 46.9795 15.072C46.7875 14.7413 46.6915 14.3467 46.6915 13.888C46.6915 13.3973 46.8142 12.96 47.0595 12.576C47.3048 12.192 47.6675 11.888 48.1475 11.664C48.6275 11.44 49.2142 11.328 49.9075 11.328C50.6115 11.328 51.1982 11.456 51.6675 11.712C52.1475 11.9573 52.5262 12.288 52.8035 12.704C53.0808 13.1093 53.2622 13.5573 53.3475 14.048L51.9395 14.144C51.8755 13.8453 51.7528 13.584 51.5715 13.36C51.4008 13.1253 51.1715 12.944 50.8835 12.816C50.6062 12.6773 50.2755 12.608 49.8915 12.608C49.2728 12.608 48.8142 12.7307 48.5155 12.976C48.2168 13.2213 48.0675 13.5253 48.0675 13.888C48.0675 14.176 48.1368 14.4053 48.2755 14.576C48.4142 14.7467 48.6382 14.8853 48.9475 14.992C49.2568 15.088 49.6675 15.1787 50.1795 15.264C51.0542 15.4027 51.7315 15.584 52.2115 15.808C52.6915 16.0213 53.0275 16.288 53.2195 16.608C53.4115 16.928 53.5075 17.3227 53.5075 17.792C53.5075 18.2933 53.3582 18.7253 53.0595 19.088C52.7715 19.44 52.3715 19.712 51.8595 19.904C51.3582 20.096 50.7875 20.192 50.1475 20.192ZM59.4693 20V11.52H60.8133V20H59.4693ZM56.0613 20V18.816H63.7413V20H56.0613ZM56.2213 12.704V11.52H60.8133V12.704H56.2213ZM59.3413 10.192V8.624H60.7493V10.192H59.3413ZM69.399 20.192C68.6097 20.192 67.9217 20.0107 67.335 19.648C66.7483 19.2853 66.295 18.7733 65.975 18.112C65.655 17.44 65.495 16.656 65.495 15.76C65.495 14.864 65.655 14.0853 65.975 13.424C66.295 12.7627 66.7483 12.2507 67.335 11.888C67.9217 11.5147 68.6097 11.328 69.399 11.328C70.0283 11.328 70.5883 11.4453 71.079 11.68C71.5697 11.904 71.975 12.2347 72.295 12.672C72.615 13.1093 72.8337 13.6427 72.951 14.272L71.543 14.368C71.415 13.8027 71.159 13.3707 70.775 13.072C70.4017 12.7627 69.943 12.608 69.399 12.608C68.6203 12.608 68.007 12.8907 67.559 13.456C67.1217 14.0107 66.903 14.7787 66.903 15.76C66.903 16.7413 67.1217 17.5147 67.559 18.08C68.007 18.6347 68.6203 18.912 69.399 18.912C69.943 18.912 70.4123 18.752 70.807 18.432C71.2123 18.112 71.479 17.632 71.607 16.992L73.015 17.088C72.8977 17.7173 72.6737 18.2667 72.343 18.736C72.0123 19.1947 71.5963 19.552 71.095 19.808C70.5937 20.064 70.0283 20.192 69.399 20.192Z" fill="#D8D9C3"/>
</svg>
