<svg width="100" height="30" viewBox="0 0 100 30" fill="none" xmlns="http://www.w3.org/2000/svg">
<rect x="0.5" y="0.5" width="99" height="29" fill="#181A1B" stroke="#D8D9C3"/>
<path d="M30.192 18.72L28.048 9.92H28.176V20H26.8V8.64H28.88L31.12 17.984H30.48L32.72 8.64H34.8V20H33.424V9.92H33.552L31.408 18.72H30.192ZM37.8018 22.4V21.216H38.7778C39.0764 21.216 39.2951 21.168 39.4338 21.072C39.5831 20.9867 39.6951 20.8427 39.7698 20.64L40.0738 19.84H39.6098L36.4578 11.52H37.9298L40.5058 18.592L42.9218 11.52H44.3938L40.9538 21.072C40.7938 21.5307 40.5538 21.8667 40.2338 22.08C39.9138 22.2933 39.4711 22.4 38.9058 22.4H37.8018ZM50.1635 20.256C49.3635 20.256 48.6542 20.0907 48.0355 19.76C47.4168 19.4293 46.9208 18.976 46.5475 18.4C46.1742 17.8133 45.9555 17.136 45.8915 16.368L47.3315 16.272C47.4062 16.8373 47.5662 17.3173 47.8115 17.712C48.0675 18.1067 48.3928 18.4053 48.7875 18.608C49.1928 18.8107 49.6622 18.912 50.1955 18.912C50.7288 18.912 51.1768 18.848 51.5395 18.72C51.9022 18.5813 52.1742 18.384 52.3555 18.128C52.5475 17.8613 52.6435 17.5467 52.6435 17.184C52.6435 16.8213 52.5582 16.5067 52.3875 16.24C52.2275 15.9627 51.9182 15.7067 51.4595 15.472C51.0115 15.2373 50.3448 14.9973 49.4595 14.752C48.6702 14.528 48.0302 14.2827 47.5395 14.016C47.0595 13.7493 46.7075 13.424 46.4835 13.04C46.2702 12.656 46.1635 12.1813 46.1635 11.616C46.1635 10.976 46.3128 10.416 46.6115 9.936C46.9208 9.44533 47.3582 9.06667 47.9235 8.8C48.4888 8.52267 49.1608 8.384 49.9395 8.384C50.7182 8.384 51.3848 8.544 51.9395 8.864C52.4942 9.17333 52.9315 9.6 53.2515 10.144C53.5822 10.688 53.7902 11.3067 53.8755 12L52.4355 12.096C52.3715 11.6373 52.2382 11.232 52.0355 10.88C51.8328 10.5173 51.5555 10.2347 51.2035 10.032C50.8515 9.82933 50.4195 9.728 49.9075 9.728C49.2035 9.728 48.6435 9.89867 48.2275 10.24C47.8115 10.5707 47.6035 11.008 47.6035 11.552C47.6035 11.904 47.6782 12.1973 47.8275 12.432C47.9875 12.656 48.2648 12.8587 48.6595 13.04C49.0542 13.2107 49.6088 13.3973 50.3235 13.6C51.2515 13.856 51.9875 14.144 52.5315 14.464C53.0862 14.784 53.4808 15.168 53.7155 15.616C53.9608 16.0533 54.0835 16.5867 54.0835 17.216C54.0835 17.8133 53.9182 18.3413 53.5875 18.8C53.2568 19.2587 52.7982 19.616 52.2115 19.872C51.6248 20.128 50.9422 20.256 50.1635 20.256ZM61.6613 21.104L58.6213 16.672H60.0933L63.1333 21.104H61.6613ZM59.5813 20.256C58.6853 20.256 57.9226 20.0267 57.2933 19.568C56.6746 19.1093 56.1999 18.4373 55.8693 17.552C55.5493 16.6667 55.3893 15.5947 55.3893 14.336C55.3893 13.056 55.5493 11.9733 55.8693 11.088C56.1999 10.2027 56.6746 9.53067 57.2933 9.072C57.9226 8.61333 58.6853 8.384 59.5813 8.384C60.4773 8.384 61.2346 8.61333 61.8533 9.072C62.4826 9.53067 62.9573 10.2027 63.2773 11.088C63.6079 11.9733 63.7733 13.056 63.7733 14.336C63.7733 15.5947 63.6079 16.6667 63.2773 17.552C62.9573 18.4373 62.4826 19.1093 61.8533 19.568C61.2346 20.0267 60.4773 20.256 59.5813 20.256ZM59.5813 18.912C60.1679 18.912 60.6639 18.7413 61.0693 18.4C61.4853 18.048 61.7999 17.5307 62.0133 16.848C62.2266 16.1653 62.3333 15.328 62.3333 14.336C62.3333 13.344 62.2266 12.5067 62.0133 11.824C61.7999 11.1307 61.4853 10.608 61.0693 10.256C60.6639 9.904 60.1679 9.728 59.5813 9.728C58.9946 9.728 58.4933 9.904 58.0773 10.256C57.6719 10.608 57.3626 11.1307 57.1493 11.824C56.9359 12.5067 56.8293 13.344 56.8293 14.336C56.8293 15.328 56.9359 16.1653 57.1493 16.848C57.3626 17.5307 57.6719 18.048 58.0773 18.4C58.4933 18.7413 58.9946 18.912 59.5813 18.912ZM65.975 20V8.64H67.351V19.36L66.663 18.656H73.015V20H65.975Z" fill="#D8D9C3"/>
</svg>
