<svg width="100" height="30" viewBox="0 0 100 30" fill="none" xmlns="http://www.w3.org/2000/svg">
<rect x="0.5" y="0.5" width="99" height="29" fill="#181A1B" stroke="#D8D9C3"/>
<path d="M22.44 20V8.64H25.896C26.6853 8.64 27.3733 8.77867 27.96 9.056C28.5467 9.33333 29 9.73333 29.32 10.256C29.64 10.768 29.8 11.3867 29.8 12.112C29.8 12.8373 29.64 13.4613 29.32 13.984C29 14.496 28.5467 14.8907 27.96 15.168C27.3733 15.4453 26.6853 15.584 25.896 15.584H23.816V20H22.44ZM23.816 14.24H25.736C26.632 14.24 27.2933 14.0587 27.72 13.696C28.1467 13.3227 28.36 12.7947 28.36 12.112C28.36 11.4187 28.1467 10.8907 27.72 10.528C27.2933 10.1653 26.632 9.984 25.736 9.984H23.816V14.24ZM32.8018 22.4V21.216H33.7778C34.0764 21.216 34.2951 21.168 34.4338 21.072C34.5831 20.9867 34.6951 20.8427 34.7698 20.64L35.0738 19.84H34.6098L31.4578 11.52H32.9298L35.5058 18.592L37.9218 11.52H39.3938L35.9538 21.072C35.7938 21.5307 35.5538 21.8667 35.2338 22.08C34.9138 22.2933 34.4711 22.4 33.9058 22.4H32.8018ZM46.2355 20C45.4142 20 44.8008 19.808 44.3955 19.424C43.9902 19.04 43.7875 18.4533 43.7875 17.664V9.536H45.1315V17.664C45.1315 18.0587 45.2222 18.352 45.4035 18.544C45.5848 18.7253 45.8622 18.816 46.2355 18.816H48.5075V20H46.2355ZM40.9875 12.704V11.52H48.5075V12.704H40.9875ZM51.3813 20V8.64H52.7253V13.392L52.5653 13.36C52.6719 12.8907 52.8533 12.5067 53.1093 12.208C53.3653 11.9093 53.6799 11.6907 54.0533 11.552C54.4266 11.4027 54.8319 11.328 55.2693 11.328C55.8773 11.328 56.3893 11.4667 56.8053 11.744C57.2319 12.0107 57.5519 12.3893 57.7653 12.88C57.9893 13.36 58.1013 13.9147 58.1013 14.544V20H56.7573V14.928C56.7573 14.1067 56.6079 13.4987 56.3093 13.104C56.0213 12.7093 55.5786 12.512 54.9813 12.512C54.2986 12.512 53.7493 12.72 53.3333 13.136C52.9279 13.552 52.7253 14.1547 52.7253 14.944V20H51.3813ZM64.175 20.192C63.3963 20.192 62.7137 20.0107 62.127 19.648C61.551 19.2853 61.103 18.7733 60.783 18.112C60.463 17.44 60.303 16.656 60.303 15.76C60.303 14.8533 60.463 14.0693 60.783 13.408C61.103 12.7467 61.551 12.2347 62.127 11.872C62.7137 11.5093 63.3963 11.328 64.175 11.328C64.9537 11.328 65.631 11.5093 66.207 11.872C66.7937 12.2347 67.247 12.7467 67.567 13.408C67.887 14.0693 68.047 14.8533 68.047 15.76C68.047 16.656 67.887 17.44 67.567 18.112C67.247 18.7733 66.7937 19.2853 66.207 19.648C65.631 20.0107 64.9537 20.192 64.175 20.192ZM64.175 18.912C64.9537 18.912 65.5563 18.6347 65.983 18.08C66.4203 17.5147 66.639 16.7413 66.639 15.76C66.639 14.7787 66.4203 14.0107 65.983 13.456C65.5563 12.8907 64.9537 12.608 64.175 12.608C63.3963 12.608 62.7883 12.8907 62.351 13.456C61.9243 14.0107 61.711 14.7787 61.711 15.76C61.711 16.7413 61.9243 17.5147 62.351 18.08C62.7883 18.6347 63.3963 18.912 64.175 18.912ZM70.3128 20V11.52H71.5448L71.5928 13.68L71.4328 13.536C71.5394 13.0347 71.7314 12.624 72.0088 12.304C72.2968 11.9733 72.6381 11.728 73.0328 11.568C73.4274 11.408 73.8434 11.328 74.2808 11.328C74.9314 11.328 75.4701 11.472 75.8968 11.76C76.3341 12.048 76.6648 12.4373 76.8888 12.928C77.1128 13.408 77.2248 13.9467 77.2248 14.544V20H75.8808V14.928C75.8808 14.1387 75.7261 13.5413 75.4168 13.136C75.1074 12.72 74.6328 12.512 73.9928 12.512C73.5554 12.512 73.1608 12.608 72.8088 12.8C72.4568 12.9813 72.1741 13.2533 71.9608 13.616C71.7581 13.968 71.6568 14.4053 71.6568 14.928V20H70.3128Z" fill="#D8D9C3"/>
</svg>
