<svg width="100" height="30" viewBox="0 0 100 30" fill="none" xmlns="http://www.w3.org/2000/svg">
<rect x="0.5" y="0.5" width="99" height="29" fill="#181A1B" stroke="#D8D9C3"/>
<path d="M27.12 20V8.64H30.576C31.7707 8.64 32.7147 8.944 33.408 9.552C34.1013 10.1493 34.448 10.976 34.448 12.032C34.448 12.5653 34.3253 13.04 34.08 13.456C33.8347 13.8613 33.52 14.1813 33.136 14.416C32.752 14.6507 32.3573 14.784 31.952 14.816L31.888 14.624C32.6453 14.6667 33.2107 14.848 33.584 15.168C33.968 15.488 34.192 16.0107 34.256 16.736L34.544 20H33.168L32.896 16.912C32.864 16.56 32.7787 16.2773 32.64 16.064C32.512 15.84 32.304 15.68 32.016 15.584C31.7387 15.4773 31.3547 15.424 30.864 15.424H28.496V20H27.12ZM28.496 14.08H30.576C31.3653 14.08 31.968 13.904 32.384 13.552C32.8 13.1893 33.008 12.6827 33.008 12.032C33.008 11.3707 32.8 10.864 32.384 10.512C31.968 10.16 31.3653 9.984 30.576 9.984H28.496V14.08ZM40.5378 20.192C39.7378 20.192 39.0444 20.0107 38.4578 19.648C37.8818 19.2853 37.4338 18.7733 37.1138 18.112C36.8044 17.44 36.6497 16.656 36.6497 15.76C36.6497 14.864 36.8044 14.0853 37.1138 13.424C37.4338 12.7627 37.8764 12.2507 38.4418 11.888C39.0178 11.5147 39.6951 11.328 40.4738 11.328C41.2098 11.328 41.8604 11.504 42.4258 11.856C42.9911 12.1973 43.4338 12.6987 43.7538 13.36C44.0738 14.0213 44.2338 14.8267 44.2338 15.776V16.176H38.0578C38.1111 17.0827 38.3511 17.7653 38.7778 18.224C39.2151 18.6827 39.8018 18.912 40.5378 18.912C41.0924 18.912 41.5458 18.784 41.8978 18.528C42.2604 18.2613 42.5111 17.9147 42.6498 17.488L44.0898 17.6C43.8658 18.3573 43.4391 18.9813 42.8098 19.472C42.1911 19.952 41.4338 20.192 40.5378 20.192ZM38.0578 14.992H42.7618C42.6978 14.1707 42.4578 13.568 42.0418 13.184C41.6258 12.8 41.1031 12.608 40.4738 12.608C39.8231 12.608 39.2844 12.8107 38.8578 13.216C38.4418 13.6107 38.1751 14.2027 38.0578 14.992ZM48.8675 20.192C48.3342 20.192 47.8542 20.096 47.4275 19.904C47.0008 19.712 46.6648 19.4453 46.4195 19.104C46.1742 18.752 46.0515 18.3467 46.0515 17.888C46.0515 17.1627 46.2648 16.6027 46.6915 16.208C47.1288 15.8027 47.8115 15.5093 48.7395 15.328L51.5875 14.752C51.5875 14.0267 51.4222 13.488 51.0915 13.136C50.7715 12.784 50.3075 12.608 49.6995 12.608C49.1128 12.608 48.6542 12.7413 48.3235 13.008C47.9928 13.264 47.7635 13.6373 47.6355 14.128L46.2115 14.016C46.3715 13.216 46.7502 12.5707 47.3475 12.08C47.9555 11.5787 48.7395 11.328 49.6995 11.328C50.7235 11.328 51.5182 11.6373 52.0835 12.256C52.6488 12.864 52.9315 13.7067 52.9315 14.784V18.304C52.9315 18.496 52.9742 18.6293 53.0595 18.704C53.1448 18.7787 53.2728 18.816 53.4435 18.816H53.9875V20C53.9235 20.0107 53.8222 20.016 53.6835 20.016C53.5448 20.0267 53.4115 20.032 53.2835 20.032C52.9208 20.032 52.6115 19.9733 52.3555 19.856C52.1102 19.7387 51.9235 19.552 51.7955 19.296C51.6675 19.0293 51.5982 18.688 51.5875 18.272H51.8435C51.7688 18.6347 51.5875 18.9653 51.2995 19.264C51.0222 19.552 50.6702 19.7813 50.2435 19.952C49.8168 20.112 49.3582 20.192 48.8675 20.192ZM48.9955 19.008C49.5715 19.008 50.0515 18.912 50.4355 18.72C50.8195 18.5173 51.1075 18.24 51.2995 17.888C51.4915 17.5253 51.5875 17.1093 51.5875 16.64V15.904L48.9955 16.416C48.4195 16.5227 48.0195 16.688 47.7955 16.912C47.5715 17.1253 47.4595 17.408 47.4595 17.76C47.4595 18.1547 47.5928 18.464 47.8595 18.688C48.1368 18.9013 48.5155 19.008 48.9955 19.008ZM59.8053 20.192C59.0159 20.192 58.3279 20.0107 57.7413 19.648C57.1546 19.2853 56.7013 18.7733 56.3813 18.112C56.0613 17.44 55.9013 16.656 55.9013 15.76C55.9013 14.864 56.0613 14.0853 56.3813 13.424C56.7013 12.7627 57.1546 12.2507 57.7413 11.888C58.3279 11.5147 59.0159 11.328 59.8053 11.328C60.4346 11.328 60.9946 11.4453 61.4853 11.68C61.9759 11.904 62.3813 12.2347 62.7013 12.672C63.0213 13.1093 63.2399 13.6427 63.3573 14.272L61.9493 14.368C61.8213 13.8027 61.5653 13.3707 61.1813 13.072C60.8079 12.7627 60.3493 12.608 59.8053 12.608C59.0266 12.608 58.4133 12.8907 57.9653 13.456C57.5279 14.0107 57.3093 14.7787 57.3093 15.76C57.3093 16.7413 57.5279 17.5147 57.9653 18.08C58.4133 18.6347 59.0266 18.912 59.8053 18.912C60.3493 18.912 60.8186 18.752 61.2133 18.432C61.6186 18.112 61.8853 17.632 62.0133 16.992L63.4213 17.088C63.3039 17.7173 63.0799 18.2667 62.7493 18.736C62.4186 19.1947 62.0026 19.552 61.5013 19.808C60.9999 20.064 60.4346 20.192 59.8053 20.192ZM70.423 20C69.6017 20 68.9883 19.808 68.583 19.424C68.1777 19.04 67.975 18.4533 67.975 17.664V9.536H69.319V17.664C69.319 18.0587 69.4097 18.352 69.591 18.544C69.7723 18.7253 70.0497 18.816 70.423 18.816H72.695V20H70.423ZM65.175 12.704V11.52H72.695V12.704H65.175Z" fill="#D8D9C3"/>
</svg>
