<svg width="100" height="30" viewBox="0 0 100 30" fill="none" xmlns="http://www.w3.org/2000/svg">
<rect x="0.5" y="0.5" width="99" height="29" fill="#181A1B" stroke="#D8D9C3"/>
<path d="M25.976 20.256C25.176 20.256 24.4667 20.0907 23.848 19.76C23.2293 19.4293 22.7333 18.976 22.36 18.4C21.9867 17.8133 21.768 17.136 21.704 16.368L23.144 16.272C23.2187 16.8373 23.3787 17.3173 23.624 17.712C23.88 18.1067 24.2053 18.4053 24.6 18.608C25.0053 18.8107 25.4747 18.912 26.008 18.912C26.5413 18.912 26.9893 18.848 27.352 18.72C27.7147 18.5813 27.9867 18.384 28.168 18.128C28.36 17.8613 28.456 17.5467 28.456 17.184C28.456 16.8213 28.3707 16.5067 28.2 16.24C28.04 15.9627 27.7307 15.7067 27.272 15.472C26.824 15.2373 26.1573 14.9973 25.272 14.752C24.4827 14.528 23.8427 14.2827 23.352 14.016C22.872 13.7493 22.52 13.424 22.296 13.04C22.0827 12.656 21.976 12.1813 21.976 11.616C21.976 10.976 22.1253 10.416 22.424 9.936C22.7333 9.44533 23.1707 9.06667 23.736 8.8C24.3013 8.52267 24.9733 8.384 25.752 8.384C26.5307 8.384 27.1973 8.544 27.752 8.864C28.3067 9.17333 28.744 9.6 29.064 10.144C29.3947 10.688 29.6027 11.3067 29.688 12L28.248 12.096C28.184 11.6373 28.0507 11.232 27.848 10.88C27.6453 10.5173 27.368 10.2347 27.016 10.032C26.664 9.82933 26.232 9.728 25.72 9.728C25.016 9.728 24.456 9.89867 24.04 10.24C23.624 10.5707 23.416 11.008 23.416 11.552C23.416 11.904 23.4907 12.1973 23.64 12.432C23.8 12.656 24.0773 12.8587 24.472 13.04C24.8667 13.2107 25.4213 13.3973 26.136 13.6C27.064 13.856 27.8 14.144 28.344 14.464C28.8987 14.784 29.2933 15.168 29.528 15.616C29.7733 16.0533 29.896 16.5867 29.896 17.216C29.896 17.8133 29.7307 18.3413 29.4 18.8C29.0693 19.2587 28.6107 19.616 28.024 19.872C27.4373 20.128 26.7547 20.256 25.976 20.256ZM31.8738 22.4V11.52H33.1218L33.1538 13.44L32.9618 13.344C33.1751 12.6827 33.5271 12.1813 34.0178 11.84C34.5191 11.4987 35.0951 11.328 35.7458 11.328C36.5884 11.328 37.2764 11.536 37.8098 11.952C38.3538 12.368 38.7538 12.912 39.0098 13.584C39.2658 14.256 39.3938 14.9813 39.3938 15.76C39.3938 16.5387 39.2658 17.264 39.0098 17.936C38.7538 18.608 38.3538 19.152 37.8098 19.568C37.2764 19.984 36.5884 20.192 35.7458 20.192C35.3084 20.192 34.8978 20.1173 34.5138 19.968C34.1404 19.8187 33.8204 19.6107 33.5538 19.344C33.2978 19.0773 33.1218 18.7627 33.0258 18.4L33.2178 18.176V22.4H31.8738ZM35.6178 18.912C36.3538 18.912 36.9298 18.6347 37.3458 18.08C37.7724 17.5253 37.9858 16.752 37.9858 15.76C37.9858 14.768 37.7724 13.9947 37.3458 13.44C36.9298 12.8853 36.3538 12.608 35.6178 12.608C35.1271 12.608 34.7004 12.7253 34.3378 12.96C33.9858 13.1947 33.7084 13.5467 33.5058 14.016C33.3138 14.4853 33.2178 15.0667 33.2178 15.76C33.2178 16.4533 33.3138 17.0347 33.5058 17.504C33.6978 17.9733 33.9751 18.3253 34.3378 18.56C34.7004 18.7947 35.1271 18.912 35.6178 18.912ZM44.9875 20.192C44.2088 20.192 43.5262 20.0107 42.9395 19.648C42.3635 19.2853 41.9155 18.7733 41.5955 18.112C41.2755 17.44 41.1155 16.656 41.1155 15.76C41.1155 14.8533 41.2755 14.0693 41.5955 13.408C41.9155 12.7467 42.3635 12.2347 42.9395 11.872C43.5262 11.5093 44.2088 11.328 44.9875 11.328C45.7662 11.328 46.4435 11.5093 47.0195 11.872C47.6062 12.2347 48.0595 12.7467 48.3795 13.408C48.6995 14.0693 48.8595 14.8533 48.8595 15.76C48.8595 16.656 48.6995 17.44 48.3795 18.112C48.0595 18.7733 47.6062 19.2853 47.0195 19.648C46.4435 20.0107 45.7662 20.192 44.9875 20.192ZM44.9875 18.912C45.7662 18.912 46.3688 18.6347 46.7955 18.08C47.2328 17.5147 47.4515 16.7413 47.4515 15.76C47.4515 14.7787 47.2328 14.0107 46.7955 13.456C46.3688 12.8907 45.7662 12.608 44.9875 12.608C44.2088 12.608 43.6008 12.8907 43.1635 13.456C42.7368 14.0107 42.5235 14.7787 42.5235 15.76C42.5235 16.7413 42.7368 17.5147 43.1635 18.08C43.6008 18.6347 44.2088 18.912 44.9875 18.912ZM53.4293 20V11.52H54.5493L54.6773 13.664L54.5493 13.632C54.6559 12.9067 54.8853 12.3733 55.2373 12.032C55.5999 11.6907 56.0799 11.52 56.6773 11.52H58.4213V12.736H56.6933C56.2773 12.736 55.9253 12.8213 55.6373 12.992C55.3599 13.152 55.1466 13.392 54.9973 13.712C54.8479 14.0213 54.7733 14.4107 54.7733 14.88V20H53.4293ZM51.2213 20V18.816H57.4613V20H51.2213ZM51.2213 12.704V11.52H54.1653V12.704H51.2213ZM65.423 20C64.6017 20 63.9883 19.808 63.583 19.424C63.1777 19.04 62.975 18.4533 62.975 17.664V9.536H64.319V17.664C64.319 18.0587 64.4097 18.352 64.591 18.544C64.7723 18.7253 65.0497 18.816 65.423 18.816H67.695V20H65.423ZM60.175 12.704V11.52H67.695V12.704H60.175ZM73.9288 20.192C73.1928 20.192 72.5581 20.064 72.0248 19.808C71.4914 19.552 71.0701 19.2107 70.7608 18.784C70.4621 18.3467 70.2914 17.8613 70.2488 17.328L71.6568 17.232C71.7421 17.7547 71.9714 18.1653 72.3448 18.464C72.7288 18.7627 73.2568 18.912 73.9288 18.912C74.5581 18.912 75.0434 18.8213 75.3848 18.64C75.7368 18.4587 75.9128 18.176 75.9128 17.792C75.9128 17.5467 75.8541 17.344 75.7368 17.184C75.6194 17.024 75.4008 16.8907 75.0808 16.784C74.7608 16.6667 74.2914 16.5547 73.6727 16.448C72.8514 16.2987 72.2061 16.1173 71.7368 15.904C71.2781 15.68 70.9528 15.4027 70.7608 15.072C70.5688 14.7413 70.4728 14.3467 70.4728 13.888C70.4728 13.3973 70.5954 12.96 70.8408 12.576C71.0861 12.192 71.4488 11.888 71.9288 11.664C72.4088 11.44 72.9954 11.328 73.6888 11.328C74.3928 11.328 74.9794 11.456 75.4488 11.712C75.9288 11.9573 76.3074 12.288 76.5848 12.704C76.8621 13.1093 77.0434 13.5573 77.1288 14.048L75.7208 14.144C75.6568 13.8453 75.5341 13.584 75.3528 13.36C75.1821 13.1253 74.9528 12.944 74.6648 12.816C74.3874 12.6773 74.0568 12.608 73.6727 12.608C73.0541 12.608 72.5954 12.7307 72.2968 12.976C71.9981 13.2213 71.8488 13.5253 71.8488 13.888C71.8488 14.176 71.9181 14.4053 72.0568 14.576C72.1954 14.7467 72.4194 14.8853 72.7288 14.992C73.0381 15.088 73.4488 15.1787 73.9608 15.264C74.8354 15.4027 75.5128 15.584 75.9928 15.808C76.4728 16.0213 76.8088 16.288 77.0008 16.608C77.1928 16.928 77.2888 17.3227 77.2888 17.792C77.2888 18.2933 77.1394 18.7253 76.8408 19.088C76.5528 19.44 76.1528 19.712 75.6408 19.904C75.1394 20.096 74.5688 20.192 73.9288 20.192Z" fill="#D8D9C3"/>
</svg>
