<svg width="100" height="30" viewBox="0 0 100 30" fill="none" xmlns="http://www.w3.org/2000/svg">
<rect x="0.5" y="0.5" width="99" height="29" fill="#181A1B" stroke="#D8D9C3"/>
<path d="M15.112 20V9.984H11.64V8.64H19.96V9.984H16.488V20H15.112ZM24.2738 20.192C23.7404 20.192 23.2604 20.096 22.8338 19.904C22.4071 19.712 22.0711 19.4453 21.8258 19.104C21.5804 18.752 21.4578 18.3467 21.4578 17.888C21.4578 17.1627 21.6711 16.6027 22.0978 16.208C22.5351 15.8027 23.2178 15.5093 24.1458 15.328L26.9938 14.752C26.9938 14.0267 26.8284 13.488 26.4978 13.136C26.1778 12.784 25.7138 12.608 25.1058 12.608C24.5191 12.608 24.0604 12.7413 23.7298 13.008C23.3991 13.264 23.1698 13.6373 23.0418 14.128L21.6178 14.016C21.7778 13.216 22.1564 12.5707 22.7538 12.08C23.3618 11.5787 24.1458 11.328 25.1058 11.328C26.1298 11.328 26.9244 11.6373 27.4898 12.256C28.0551 12.864 28.3378 13.7067 28.3378 14.784V18.304C28.3378 18.496 28.3804 18.6293 28.4658 18.704C28.5511 18.7787 28.6791 18.816 28.8498 18.816H29.3938V20C29.3298 20.0107 29.2284 20.016 29.0898 20.016C28.9511 20.0267 28.8178 20.032 28.6898 20.032C28.3271 20.032 28.0178 19.9733 27.7618 19.856C27.5164 19.7387 27.3298 19.552 27.2018 19.296C27.0738 19.0293 27.0044 18.688 26.9938 18.272H27.2498C27.1751 18.6347 26.9938 18.9653 26.7058 19.264C26.4284 19.552 26.0764 19.7813 25.6498 19.952C25.2231 20.112 24.7644 20.192 24.2738 20.192ZM24.4018 19.008C24.9778 19.008 25.4578 18.912 25.8418 18.72C26.2258 18.5173 26.5138 18.24 26.7058 17.888C26.8978 17.5253 26.9938 17.1093 26.9938 16.64V15.904L24.4018 16.416C23.8258 16.5227 23.4258 16.688 23.2018 16.912C22.9778 17.1253 22.8658 17.408 22.8658 17.76C22.8658 18.1547 22.9991 18.464 23.2658 18.688C23.5431 18.9013 23.9218 19.008 24.4018 19.008ZM34.8755 20V11.52H36.2195V20H34.8755ZM31.4675 20V18.816H39.1475V20H31.4675ZM31.6275 12.704V11.52H36.2195V12.704H31.6275ZM34.7475 10.192V8.624H36.1555V10.192H34.7475ZM44.1493 20V10.912C44.1493 10.5707 44.0533 10.304 43.8613 10.112C43.6693 9.92 43.4026 9.824 43.0613 9.824H41.0613V8.64H43.1253C43.9039 8.64 44.4906 8.84267 44.8853 9.248C45.2906 9.64267 45.4933 10.2293 45.4933 11.008V20H44.1493ZM40.7413 20V18.816H48.4213V20H40.7413ZM51.375 20L49.695 11.52H51.167L52.271 18.592L53.519 12.704H54.831L56.079 18.592L57.183 11.52H58.655L56.991 20H55.295L54.175 14.656L53.055 20H51.375ZM63.6568 20V11.52H65.0008V20H63.6568ZM60.2488 20V18.816H67.9288V20H60.2488ZM60.4088 12.704V11.52H65.0008V12.704H60.4088ZM63.5288 10.192V8.624H64.9368V10.192H63.5288ZM69.9065 20V11.52H71.1385L71.1865 13.68L71.0265 13.536C71.1332 13.0347 71.3252 12.624 71.6025 12.304C71.8905 11.9733 72.2318 11.728 72.6265 11.568C73.0212 11.408 73.4372 11.328 73.8745 11.328C74.5252 11.328 75.0638 11.472 75.4905 11.76C75.9278 12.048 76.2585 12.4373 76.4825 12.928C76.7065 13.408 76.8185 13.9467 76.8185 14.544V20H75.4745V14.928C75.4745 14.1387 75.3198 13.5413 75.0105 13.136C74.7012 12.72 74.2265 12.512 73.5865 12.512C73.1492 12.512 72.7545 12.608 72.4025 12.8C72.0505 12.9813 71.7678 13.2533 71.5545 13.616C71.3518 13.968 71.2505 14.4053 71.2505 14.928V20H69.9065ZM82.4283 20.192C81.6816 20.192 81.0363 20.0107 80.4923 19.648C79.9483 19.2853 79.5269 18.7733 79.2283 18.112C78.9403 17.4507 78.7963 16.6667 78.7963 15.76C78.7963 14.8533 78.9403 14.0693 79.2283 13.408C79.5269 12.7467 79.9483 12.2347 80.4923 11.872C81.0363 11.5093 81.6816 11.328 82.4283 11.328C83.0256 11.328 83.5483 11.472 83.9963 11.76C84.4443 12.0373 84.7696 12.352 84.9723 12.704V8.64H86.3163V20H85.1003L85.0523 18.72C84.8176 19.1787 84.4709 19.5413 84.0123 19.808C83.5536 20.064 83.0256 20.192 82.4283 20.192ZM82.5083 18.912C83.0203 18.912 83.4576 18.784 83.8203 18.528C84.1936 18.272 84.4763 17.9093 84.6683 17.44C84.8709 16.96 84.9723 16.4 84.9723 15.76C84.9723 15.0987 84.8709 14.5333 84.6683 14.064C84.4763 13.5947 84.1936 13.2373 83.8203 12.992C83.4469 12.736 82.9989 12.608 82.4763 12.608C81.7829 12.608 81.2283 12.8907 80.8123 13.456C80.4069 14.0107 80.2043 14.7787 80.2043 15.76C80.2043 16.7307 80.4069 17.4987 80.8123 18.064C81.2283 18.6293 81.7936 18.912 82.5083 18.912Z" fill="#D8D9C3"/>
</svg>
