<svg width="100" height="30" viewBox="0 0 100 30" fill="none" xmlns="http://www.w3.org/2000/svg">
<rect x="0.5" y="0.5" width="99" height="29" fill="#181A1B" stroke="#D8D9C3"/>
<path d="M6.112 20V9.984H2.64V8.64H10.96V9.984H7.488V20H6.112ZM13.8018 22.4V21.216H14.7778C15.0764 21.216 15.2951 21.168 15.4338 21.072C15.5831 20.9867 15.6951 20.8427 15.7698 20.64L16.0738 19.84H15.6098L12.4578 11.52H13.9298L16.5058 18.592L18.9218 11.52H20.3938L16.9538 21.072C16.7938 21.5307 16.5538 21.8667 16.2338 22.08C15.9138 22.2933 15.4711 22.4 14.9058 22.4H13.8018ZM22.4675 22.4V11.52H23.7155L23.7475 13.44L23.5555 13.344C23.7688 12.6827 24.1208 12.1813 24.6115 11.84C25.1128 11.4987 25.6888 11.328 26.3395 11.328C27.1822 11.328 27.8702 11.536 28.4035 11.952C28.9475 12.368 29.3475 12.912 29.6035 13.584C29.8595 14.256 29.9875 14.9813 29.9875 15.76C29.9875 16.5387 29.8595 17.264 29.6035 17.936C29.3475 18.608 28.9475 19.152 28.4035 19.568C27.8702 19.984 27.1822 20.192 26.3395 20.192C25.9022 20.192 25.4915 20.1173 25.1075 19.968C24.7342 19.8187 24.4142 19.6107 24.1475 19.344C23.8915 19.0773 23.7155 18.7627 23.6195 18.4L23.8115 18.176V22.4H22.4675ZM26.2115 18.912C26.9475 18.912 27.5235 18.6347 27.9395 18.08C28.3662 17.5253 28.5795 16.752 28.5795 15.76C28.5795 14.768 28.3662 13.9947 27.9395 13.44C27.5235 12.8853 26.9475 12.608 26.2115 12.608C25.7208 12.608 25.2942 12.7253 24.9315 12.96C24.5795 13.1947 24.3022 13.5467 24.0995 14.016C23.9075 14.4853 23.8115 15.0667 23.8115 15.76C23.8115 16.4533 23.9075 17.0347 24.0995 17.504C24.2915 17.9733 24.5688 18.3253 24.9315 18.56C25.2942 18.7947 25.7208 18.912 26.2115 18.912ZM35.7253 20.192C34.9253 20.192 34.2319 20.0107 33.6453 19.648C33.0693 19.2853 32.6213 18.7733 32.3013 18.112C31.9919 17.44 31.8372 16.656 31.8372 15.76C31.8372 14.864 31.9919 14.0853 32.3013 13.424C32.6213 12.7627 33.0639 12.2507 33.6293 11.888C34.2053 11.5147 34.8826 11.328 35.6613 11.328C36.3973 11.328 37.0479 11.504 37.6133 11.856C38.1786 12.1973 38.6213 12.6987 38.9413 13.36C39.2613 14.0213 39.4213 14.8267 39.4213 15.776V16.176H33.2453C33.2986 17.0827 33.5386 17.7653 33.9653 18.224C34.4026 18.6827 34.9893 18.912 35.7253 18.912C36.2799 18.912 36.7333 18.784 37.0853 18.528C37.4479 18.2613 37.6986 17.9147 37.8373 17.488L39.2773 17.6C39.0533 18.3573 38.6266 18.9813 37.9973 19.472C37.3786 19.952 36.6213 20.192 35.7253 20.192ZM33.2453 14.992H37.9493C37.8853 14.1707 37.6453 13.568 37.2293 13.184C36.8133 12.8 36.2906 12.608 35.6613 12.608C35.0106 12.608 34.4719 12.8107 34.0453 13.216C33.6293 13.6107 33.3626 14.2027 33.2453 14.992ZM45.351 20.256C44.551 20.256 43.8417 20.0907 43.223 19.76C42.6043 19.4293 42.1083 18.976 41.735 18.4C41.3617 17.8133 41.143 17.136 41.079 16.368L42.519 16.272C42.5937 16.8373 42.7537 17.3173 42.999 17.712C43.255 18.1067 43.5803 18.4053 43.975 18.608C44.3803 18.8107 44.8497 18.912 45.383 18.912C45.9163 18.912 46.3643 18.848 46.727 18.72C47.0897 18.5813 47.3617 18.384 47.543 18.128C47.735 17.8613 47.831 17.5467 47.831 17.184C47.831 16.8213 47.7457 16.5067 47.575 16.24C47.415 15.9627 47.1057 15.7067 46.647 15.472C46.199 15.2373 45.5323 14.9973 44.647 14.752C43.8577 14.528 43.2177 14.2827 42.727 14.016C42.247 13.7493 41.895 13.424 41.671 13.04C41.4577 12.656 41.351 12.1813 41.351 11.616C41.351 10.976 41.5003 10.416 41.799 9.936C42.1083 9.44533 42.5457 9.06667 43.111 8.8C43.6763 8.52267 44.3483 8.384 45.127 8.384C45.9057 8.384 46.5723 8.544 47.127 8.864C47.6817 9.17333 48.119 9.6 48.439 10.144C48.7697 10.688 48.9777 11.3067 49.063 12L47.623 12.096C47.559 11.6373 47.4257 11.232 47.223 10.88C47.0203 10.5173 46.743 10.2347 46.391 10.032C46.039 9.82933 45.607 9.728 45.095 9.728C44.391 9.728 43.831 9.89867 43.415 10.24C42.999 10.5707 42.791 11.008 42.791 11.552C42.791 11.904 42.8657 12.1973 43.015 12.432C43.175 12.656 43.4523 12.8587 43.847 13.04C44.2417 13.2107 44.7963 13.3973 45.511 13.6C46.439 13.856 47.175 14.144 47.719 14.464C48.2737 14.784 48.6683 15.168 48.903 15.616C49.1483 16.0533 49.271 16.5867 49.271 17.216C49.271 17.8133 49.1057 18.3413 48.775 18.8C48.4443 19.2587 47.9857 19.616 47.399 19.872C46.8123 20.128 46.1297 20.256 45.351 20.256ZM54.9928 20.192C54.2034 20.192 53.5154 20.0107 52.9288 19.648C52.3421 19.2853 51.8888 18.7733 51.5688 18.112C51.2488 17.44 51.0888 16.656 51.0888 15.76C51.0888 14.864 51.2488 14.0853 51.5688 13.424C51.8888 12.7627 52.3421 12.2507 52.9288 11.888C53.5154 11.5147 54.2034 11.328 54.9928 11.328C55.6221 11.328 56.1821 11.4453 56.6728 11.68C57.1634 11.904 57.5688 12.2347 57.8888 12.672C58.2088 13.1093 58.4274 13.6427 58.5448 14.272L57.1368 14.368C57.0088 13.8027 56.7528 13.3707 56.3688 13.072C55.9954 12.7627 55.5368 12.608 54.9928 12.608C54.2141 12.608 53.6008 12.8907 53.1528 13.456C52.7154 14.0107 52.4968 14.7787 52.4968 15.76C52.4968 16.7413 52.7154 17.5147 53.1528 18.08C53.6008 18.6347 54.2141 18.912 54.9928 18.912C55.5368 18.912 56.0061 18.752 56.4008 18.432C56.8061 18.112 57.0728 17.632 57.2008 16.992L58.6088 17.088C58.4914 17.7173 58.2674 18.2667 57.9368 18.736C57.6061 19.1947 57.1901 19.552 56.6888 19.808C56.1874 20.064 55.6221 20.192 54.9928 20.192ZM63.2105 20V11.52H64.3305L64.4585 13.664L64.3305 13.632C64.4372 12.9067 64.6665 12.3733 65.0185 12.032C65.3812 11.6907 65.8612 11.52 66.4585 11.52H68.2025V12.736H66.4745C66.0585 12.736 65.7065 12.8213 65.4185 12.992C65.1412 13.152 64.9278 13.392 64.7785 13.712C64.6292 14.0213 64.5545 14.4107 64.5545 14.88V20H63.2105ZM61.0025 20V18.816H67.2425V20H61.0025ZM61.0025 12.704V11.52H63.9465V12.704H61.0025ZM73.8443 20V11.52H75.1883V20H73.8443ZM70.4363 20V18.816H78.1163V20H70.4363ZM70.5963 12.704V11.52H75.1883V12.704H70.5963ZM73.7163 10.192V8.624H75.1243V10.192H73.7163ZM80.03 22.4V11.52H81.278L81.31 13.44L81.118 13.344C81.3313 12.6827 81.6833 12.1813 82.174 11.84C82.6753 11.4987 83.2513 11.328 83.902 11.328C84.7447 11.328 85.4327 11.536 85.966 11.952C86.51 12.368 86.91 12.912 87.166 13.584C87.422 14.256 87.55 14.9813 87.55 15.76C87.55 16.5387 87.422 17.264 87.166 17.936C86.91 18.608 86.51 19.152 85.966 19.568C85.4327 19.984 84.7447 20.192 83.902 20.192C83.4647 20.192 83.054 20.1173 82.67 19.968C82.2967 19.8187 81.9767 19.6107 81.71 19.344C81.454 19.0773 81.278 18.7627 81.182 18.4L81.374 18.176V22.4H80.03ZM83.774 18.912C84.51 18.912 85.086 18.6347 85.502 18.08C85.9287 17.5253 86.142 16.752 86.142 15.76C86.142 14.768 85.9287 13.9947 85.502 13.44C85.086 12.8853 84.51 12.608 83.774 12.608C83.2833 12.608 82.8567 12.7253 82.494 12.96C82.142 13.1947 81.8647 13.5467 81.662 14.016C81.47 14.4853 81.374 15.0667 81.374 15.76C81.374 16.4533 81.47 17.0347 81.662 17.504C81.854 17.9733 82.1313 18.3253 82.494 18.56C82.8567 18.7947 83.2833 18.912 83.774 18.912ZM94.3918 20C93.5704 20 92.9571 19.808 92.5518 19.424C92.1464 19.04 91.9438 18.4533 91.9438 17.664V9.536H93.2878V17.664C93.2878 18.0587 93.3784 18.352 93.5598 18.544C93.7411 18.7253 94.0184 18.816 94.3918 18.816H96.6638V20H94.3918ZM89.1438 12.704V11.52H96.6638V12.704H89.1438Z" fill="#D8D9C3"/>
</svg>
