<svg width="100" height="30" viewBox="0 0 100 30" fill="none" xmlns="http://www.w3.org/2000/svg">
<rect x="0.5" y="0.5" width="99" height="29" fill="#181A1B" stroke="#D8D9C3"/>
<path d="M33.904 20L30.48 8.64H31.952L34.992 19.104H34.608L37.648 8.64H39.12L35.696 20H33.904ZM44.2818 20V11.52H45.6258V20H44.2818ZM40.8738 20V18.816H48.5538V20H40.8738ZM41.0338 12.704V11.52H45.6258V12.704H41.0338ZM44.1538 10.192V8.624H45.5618V10.192H44.1538ZM55.2355 20C54.4142 20 53.8008 19.808 53.3955 19.424C52.9902 19.04 52.7875 18.4533 52.7875 17.664V9.536H54.1315V17.664C54.1315 18.0587 54.2222 18.352 54.4035 18.544C54.5848 18.7253 54.8622 18.816 55.2355 18.816H57.5075V20H55.2355ZM49.9875 12.704V11.52H57.5075V12.704H49.9875ZM63.7253 20.192C62.9253 20.192 62.2319 20.0107 61.6453 19.648C61.0693 19.2853 60.6213 18.7733 60.3013 18.112C59.9919 17.44 59.8372 16.656 59.8372 15.76C59.8372 14.864 59.9919 14.0853 60.3013 13.424C60.6213 12.7627 61.0639 12.2507 61.6293 11.888C62.2053 11.5147 62.8826 11.328 63.6613 11.328C64.3973 11.328 65.0479 11.504 65.6133 11.856C66.1786 12.1973 66.6213 12.6987 66.9413 13.36C67.2613 14.0213 67.4213 14.8267 67.4213 15.776V16.176H61.2453C61.2986 17.0827 61.5386 17.7653 61.9653 18.224C62.4026 18.6827 62.9893 18.912 63.7253 18.912C64.2799 18.912 64.7333 18.784 65.0853 18.528C65.4479 18.2613 65.6986 17.9147 65.8373 17.488L67.2773 17.6C67.0533 18.3573 66.6266 18.9813 65.9973 19.472C65.3786 19.952 64.6213 20.192 63.7253 20.192ZM61.2453 14.992H65.9493C65.8853 14.1707 65.6453 13.568 65.2293 13.184C64.8133 12.8 64.2906 12.608 63.6613 12.608C63.0106 12.608 62.4719 12.8107 62.0453 13.216C61.6293 13.6107 61.3626 14.2027 61.2453 14.992Z" fill="#D8D9C3"/>
</svg>
