<svg width="100" height="30" viewBox="0 0 100 30" fill="none" xmlns="http://www.w3.org/2000/svg">
<rect x="0.5" y="0.5" width="99" height="29" fill="#181A1B" stroke="#D8D9C3"/>
<path d="M15.128 20V15.36L11.64 8.64H13.208L15.8 13.952L18.392 8.64H19.96L16.504 15.36V20H15.128ZM25.3938 20.192C24.6151 20.192 23.9324 20.0107 23.3458 19.648C22.7698 19.2853 22.3218 18.7733 22.0018 18.112C21.6818 17.44 21.5218 16.656 21.5218 15.76C21.5218 14.8533 21.6818 14.0693 22.0018 13.408C22.3218 12.7467 22.7698 12.2347 23.3458 11.872C23.9324 11.5093 24.6151 11.328 25.3938 11.328C26.1724 11.328 26.8498 11.5093 27.4258 11.872C28.0124 12.2347 28.4658 12.7467 28.7858 13.408C29.1058 14.0693 29.2658 14.8533 29.2658 15.76C29.2658 16.656 29.1058 17.44 28.7858 18.112C28.4658 18.7733 28.0124 19.2853 27.4258 19.648C26.8498 20.0107 26.1724 20.192 25.3938 20.192ZM25.3938 18.912C26.1724 18.912 26.7751 18.6347 27.2018 18.08C27.6391 17.5147 27.8578 16.7413 27.8578 15.76C27.8578 14.7787 27.6391 14.0107 27.2018 13.456C26.7751 12.8907 26.1724 12.608 25.3938 12.608C24.6151 12.608 24.0071 12.8907 23.5698 13.456C23.1431 14.0107 22.9298 14.7787 22.9298 15.76C22.9298 16.7413 23.1431 17.5147 23.5698 18.08C24.0071 18.6347 24.6151 18.912 25.3938 18.912ZM34.3955 20.192C33.5528 20.192 32.8808 19.9093 32.3795 19.344C31.8782 18.768 31.6275 17.9787 31.6275 16.976V11.52H32.9715V16.608C32.9715 17.4293 33.1155 18.0373 33.4035 18.432C33.7022 18.816 34.1555 19.008 34.7635 19.008C35.4248 19.008 35.9475 18.7947 36.3315 18.368C36.7155 17.9307 36.9075 17.3333 36.9075 16.576V11.52H38.2515V20H36.9715V17.904L37.1795 18.016C37.0088 18.7093 36.6835 19.248 36.2035 19.632C35.7235 20.0053 35.1208 20.192 34.3955 20.192ZM43.8932 20V9.984H40.4213V8.64H48.7413V9.984H45.2693V20H43.8932ZM53.583 20.192C52.7403 20.192 52.0683 19.9093 51.567 19.344C51.0657 18.768 50.815 17.9787 50.815 16.976V11.52H52.159V16.608C52.159 17.4293 52.303 18.0373 52.591 18.432C52.8897 18.816 53.343 19.008 53.951 19.008C54.6123 19.008 55.135 18.7947 55.519 18.368C55.903 17.9307 56.095 17.3333 56.095 16.576V11.52H57.439V20H56.159V17.904L56.367 18.016C56.1963 18.7093 55.871 19.248 55.391 19.632C54.911 20.0053 54.3083 20.192 53.583 20.192ZM64.2968 20.192C63.7101 20.192 63.1874 20.064 62.7288 19.808C62.2701 19.5413 61.9181 19.1787 61.6728 18.72L61.6248 20H60.4088V8.64H61.7528V12.704C61.9661 12.352 62.2968 12.0373 62.7448 11.76C63.1928 11.472 63.7101 11.328 64.2968 11.328C65.0434 11.328 65.6888 11.5093 66.2328 11.872C66.7768 12.2347 67.1927 12.7467 67.4808 13.408C67.7794 14.0693 67.9288 14.8533 67.9288 15.76C67.9288 16.6667 67.7794 17.4507 67.4808 18.112C67.1927 18.7733 66.7768 19.2853 66.2328 19.648C65.6888 20.0107 65.0434 20.192 64.2968 20.192ZM64.2168 18.912C64.9314 18.912 65.4914 18.6293 65.8968 18.064C66.3128 17.4987 66.5208 16.7307 66.5208 15.76C66.5208 14.7787 66.3128 14.0107 65.8968 13.456C65.4914 12.8907 64.9421 12.608 64.2488 12.608C63.7261 12.608 63.2781 12.736 62.9048 12.992C62.5314 13.2373 62.2434 13.5947 62.0408 14.064C61.8488 14.5333 61.7528 15.0987 61.7528 15.76C61.7528 16.4 61.8488 16.96 62.0408 17.44C62.2434 17.9093 62.5261 18.272 62.8888 18.528C63.2621 18.784 63.7048 18.912 64.2168 18.912ZM73.5065 20.192C72.7065 20.192 72.0132 20.0107 71.4265 19.648C70.8505 19.2853 70.4025 18.7733 70.0825 18.112C69.7732 17.44 69.6185 16.656 69.6185 15.76C69.6185 14.864 69.7732 14.0853 70.0825 13.424C70.4025 12.7627 70.8452 12.2507 71.4105 11.888C71.9865 11.5147 72.6638 11.328 73.4425 11.328C74.1785 11.328 74.8292 11.504 75.3945 11.856C75.9598 12.1973 76.4025 12.6987 76.7225 13.36C77.0425 14.0213 77.2025 14.8267 77.2025 15.776V16.176H71.0265C71.0798 17.0827 71.3198 17.7653 71.7465 18.224C72.1838 18.6827 72.7705 18.912 73.5065 18.912C74.0612 18.912 74.5145 18.784 74.8665 18.528C75.2292 18.2613 75.4798 17.9147 75.6185 17.488L77.0585 17.6C76.8345 18.3573 76.4078 18.9813 75.7785 19.472C75.1598 19.952 74.4025 20.192 73.5065 20.192ZM71.0265 14.992H75.7305C75.6665 14.1707 75.4265 13.568 75.0105 13.184C74.5945 12.8 74.0718 12.608 73.4425 12.608C72.7918 12.608 72.2532 12.8107 71.8265 13.216C71.4105 13.6107 71.1438 14.2027 71.0265 14.992ZM81.8043 20V11.52H82.9243L83.0523 13.664L82.9243 13.632C83.0309 12.9067 83.2603 12.3733 83.6123 12.032C83.9749 11.6907 84.4549 11.52 85.0523 11.52H86.7963V12.736H85.0683C84.6523 12.736 84.3003 12.8213 84.0123 12.992C83.7349 13.152 83.5216 13.392 83.3723 13.712C83.2229 14.0213 83.1483 14.4107 83.1483 14.88V20H81.8043ZM79.5963 20V18.816H85.8363V20H79.5963ZM79.5963 12.704V11.52H82.5403V12.704H79.5963Z" fill="#D8D9C3"/>
</svg>
